M48
;Layer_Color=9474304
;FILE_FORMAT=2:5
INCH,LZ
;TYPE=PLATED
T1F00S00C0.03000
T2F00S00C0.03100
T3F00S00C0.03150
T4F00S00C0.03200
T5F00S00C0.03400
T6F00S00C0.03937
T7F00S00C0.04094
T8F00S00C0.04724
T9F00S00C0.07874
T10F00S00C0.11811
%
T01
X0076217Y0336045
X0096217
T02
X0214601Y0153481
Y0168481
X0272967Y0136
X0282967
X0300124
X0310124
X0327282
X0337282
Y0106
X0327282
X0310124
X0300124
X0282967
X0272967
X0032196Y0168481
X0017196
X0032119Y0226345
X0047119
X0132719Y035481
X0152719
X0163072Y0349457
X0183072
X0193424Y035481
X0183072Y0324457
X0163072
X0213424Y035481
X0260065Y0343133
X0275065
X0315183
X0330184
X0370124Y0384668
X0385124
X0213424Y037981
X0193424
X0183072Y0385162
X0163072
X0152719Y037981
X0132719
X0163072Y0410162
X0183072
T03
X0016419Y0329767
X0026262
Y0367
X0016419
T04
X0058326Y0060753
Y0075753
X0089114
Y0060753
X0119903
Y0075753
X0047119Y0210597
X0037119
X0260065Y0358881
X0270065
X0315183
X0325184
X0370124Y0400416
X0380124
T05
X0416147Y0198549
Y0208549
X0201472Y0168481
Y0100977
X0045976
Y0168481
X0416147Y0241084
Y0251084
Y0285254
Y0295254
Y0305254
Y0315254
Y034839
Y035839
Y036839
Y037839
X0380124Y0420101
X0370124
X0360124
X0350124
X0340124
X0330124
X0320124
X0310124
X0300124
X0290124
X0280124
X0270124
X0260124
X0250124
X0240124
X0230124
T06
X0310282Y0016986
X0320282
X0330282
X0340282
X0350282
X0360282Y0016985
X0056217Y032325
X0066217
X0076217
X0086217
X0096217
X0106217
Y040947
X0096217
X0086217
X0076217
X0066217
X0116217
T07
X0057119Y0194849
X0067119
X0077119
X0087119
X0097119
X0107119
X0117119
X0127119
X0137119
X0147119
X0157119
X0167119
X0177119
X0187119
X0047119
Y0294849
X0057119
X0067119
X0077119
X0087119
X0097119
X0107119
X0117119
X0127119
X0137119
X0147119
X0157119
X0167119
X0177119
X0187119
T08
X0025868Y0050709
X0080378Y0019974
X0100378
X0144404
X0164404
X0253274Y0023207
X0273274
X0293274
X0236896Y0054033
X0373353
Y0074033
X0412703Y0094565
Y0114565
X0236896Y0074033
X0025868Y0070709
T09
X0383471Y0195298
X0226778
T10
X0019685Y0019685
X023229Y00186
X0377959
X0413386Y0019685
X0377959Y016427
X023229
X0182724Y0103229
X0064724Y0166229
X0413386Y0413386
X0019685
M30
