G04*
G04 #@! TF.GenerationSoftware,Altium Limited,Altium Designer,18.0.7 (293)*
G04*
G04 Layer_Physical_Order=2*
G04 Layer_Color=16711680*
%FSLAX25Y25*%
%MOIN*%
G70*
G01*
G75*
%ADD10R,0.03937X0.05500*%
%ADD11R,0.06500X0.05000*%
%ADD12R,0.05500X0.03937*%
%ADD13R,0.03937X0.03937*%
%ADD14R,0.08000X0.09055*%
%ADD15R,0.02362X0.06102*%
%ADD16C,0.03500*%
%ADD17C,0.02000*%
%ADD18C,0.05000*%
%ADD19C,0.04000*%
%ADD20C,0.03000*%
%ADD21C,0.06000*%
%ADD22C,0.09843*%
%ADD23O,0.06142X0.09843*%
%ADD24R,0.06142X0.09843*%
%ADD25C,0.07000*%
%ADD26C,0.06000*%
%ADD27C,0.07087*%
%ADD28R,0.07087X0.07087*%
%ADD29R,0.09843X0.09843*%
%ADD30R,0.09843X0.09843*%
%ADD31C,0.13780*%
%ADD32O,0.09000X0.07500*%
%ADD33R,0.09000X0.07500*%
%ADD34O,0.04724X0.07087*%
%ADD35C,0.07500*%
%ADD36R,0.10000X0.07000*%
%ADD37O,0.10000X0.07000*%
%ADD38R,0.07500X0.09000*%
%ADD39O,0.07500X0.09000*%
%ADD40R,0.06142X0.09843*%
%ADD41O,0.06142X0.09843*%
%ADD42O,0.08661X0.11811*%
%ADD43R,0.06000X0.09000*%
%ADD44O,0.06000X0.09000*%
%ADD45R,0.07000X0.10000*%
%ADD46O,0.07000X0.10000*%
%ADD47C,0.23622*%
G36*
X431541Y1529D02*
X1529D01*
X1529Y431541D01*
X431541D01*
Y1529D01*
D02*
G37*
%LPC*%
G36*
X384195Y426022D02*
X381124D01*
Y421101D01*
X384195D01*
Y426022D01*
D02*
G37*
G36*
X379124D02*
X376054D01*
Y421101D01*
X379124D01*
Y426022D01*
D02*
G37*
G36*
X414386Y426158D02*
Y414386D01*
X426158D01*
X426078Y415396D01*
X425607Y417357D01*
X424836Y419220D01*
X423782Y420939D01*
X422473Y422473D01*
X420939Y423782D01*
X419220Y424836D01*
X417357Y425607D01*
X415396Y426078D01*
X414386Y426158D01*
D02*
G37*
G36*
X412386D02*
X411376Y426078D01*
X409415Y425607D01*
X407552Y424836D01*
X405832Y423782D01*
X404299Y422473D01*
X402989Y420939D01*
X401936Y419220D01*
X401164Y417357D01*
X400693Y415396D01*
X400614Y414386D01*
X412386D01*
Y426158D01*
D02*
G37*
G36*
X20685D02*
Y414386D01*
X32457D01*
X32377Y415396D01*
X31907Y417357D01*
X31135Y419220D01*
X30081Y420939D01*
X28772Y422473D01*
X27239Y423782D01*
X25519Y424836D01*
X23656Y425607D01*
X21695Y426078D01*
X20685Y426158D01*
D02*
G37*
G36*
X18685D02*
X17675Y426078D01*
X15714Y425607D01*
X13851Y424836D01*
X12132Y423782D01*
X10598Y422473D01*
X9289Y420939D01*
X8235Y419220D01*
X7463Y417357D01*
X6993Y415396D01*
X6913Y414386D01*
X18685D01*
Y426158D01*
D02*
G37*
G36*
X384195Y419101D02*
X381124D01*
Y414180D01*
X384195D01*
Y419101D01*
D02*
G37*
G36*
X379124D02*
X376054D01*
Y414180D01*
X379124D01*
Y419101D01*
D02*
G37*
G36*
X350124Y426058D02*
X349062Y425918D01*
X348071Y425507D01*
X347221Y424855D01*
X346568Y424005D01*
X346158Y423014D01*
X346018Y421952D01*
Y418251D01*
X346158Y417188D01*
X346568Y416198D01*
X347221Y415347D01*
X347981Y414764D01*
X348009Y414257D01*
X348005Y414227D01*
X347154Y413376D01*
X342609D01*
X342352Y413563D01*
X342164Y413822D01*
Y414689D01*
X342177Y414695D01*
X343028Y415347D01*
X343680Y416198D01*
X344091Y417188D01*
X344230Y418251D01*
Y421952D01*
X344091Y423014D01*
X343680Y424005D01*
X343028Y424855D01*
X342177Y425507D01*
X341187Y425918D01*
X340124Y426058D01*
X339062Y425918D01*
X338071Y425507D01*
X337221Y424855D01*
X336568Y424005D01*
X336158Y423014D01*
X336018Y421952D01*
Y418251D01*
X336158Y417188D01*
X336568Y416198D01*
X337221Y415347D01*
X337781Y414918D01*
X337825Y414283D01*
X337312Y413770D01*
X334613D01*
X334613Y413770D01*
X333833Y413615D01*
X333171Y413173D01*
X332601Y412602D01*
X332164Y412872D01*
Y414689D01*
X332177Y414695D01*
X333028Y415347D01*
X333680Y416198D01*
X334090Y417188D01*
X334230Y418251D01*
Y421952D01*
X334090Y423014D01*
X333680Y424005D01*
X333028Y424855D01*
X332177Y425507D01*
X331187Y425918D01*
X330124Y426058D01*
X329062Y425918D01*
X328071Y425507D01*
X327221Y424855D01*
X326569Y424005D01*
X326158Y423014D01*
X326018Y421952D01*
Y418251D01*
X326158Y417188D01*
X326569Y416198D01*
X327221Y415347D01*
X328071Y414695D01*
X328085Y414689D01*
Y413599D01*
X323742Y409255D01*
X323300Y408593D01*
X323144Y407813D01*
Y405845D01*
X323002D01*
Y397743D01*
X327365D01*
Y405845D01*
X327223D01*
Y406968D01*
X327707Y407453D01*
X328144Y407183D01*
Y405845D01*
X328002D01*
Y397743D01*
X332365D01*
Y405845D01*
X332223D01*
Y406457D01*
X332644Y406878D01*
X333144Y406671D01*
Y405845D01*
X333002D01*
Y397743D01*
X337365D01*
Y405583D01*
X337684Y405775D01*
X338002Y405583D01*
Y397743D01*
X342365D01*
Y405845D01*
X340263D01*
X340181Y406106D01*
X340180Y406345D01*
X340779Y406746D01*
X343332Y409298D01*
X347999D01*
X348779Y409453D01*
X349441Y409895D01*
X351566Y412021D01*
X351566Y412021D01*
X352008Y412682D01*
X352164Y413463D01*
X352164Y413463D01*
Y414689D01*
X352177Y414695D01*
X353028Y415347D01*
X353680Y416198D01*
X354090Y417188D01*
X354230Y418251D01*
Y421952D01*
X354090Y423014D01*
X353680Y424005D01*
X353028Y424855D01*
X352177Y425507D01*
X351187Y425918D01*
X350124Y426058D01*
D02*
G37*
G36*
X184072Y414822D02*
Y411162D01*
X187731D01*
X187700Y411402D01*
X187221Y412558D01*
X186460Y413550D01*
X185467Y414311D01*
X184312Y414790D01*
X184072Y414822D01*
D02*
G37*
G36*
X182072D02*
X181832Y414790D01*
X180676Y414311D01*
X179684Y413550D01*
X178923Y412558D01*
X178444Y411402D01*
X178413Y411162D01*
X182072D01*
Y414822D01*
D02*
G37*
G36*
Y409162D02*
X178413D01*
X178444Y408922D01*
X178923Y407767D01*
X179684Y406775D01*
X180676Y406013D01*
X181832Y405535D01*
X182072Y405503D01*
Y409162D01*
D02*
G37*
G36*
X187731D02*
X184072D01*
Y405503D01*
X184312Y405535D01*
X185467Y406013D01*
X186460Y406775D01*
X187221Y407767D01*
X187700Y408922D01*
X187731Y409162D01*
D02*
G37*
G36*
X70288Y415391D02*
X62146D01*
Y403549D01*
X70288D01*
Y415391D01*
D02*
G37*
G36*
X116217Y415427D02*
X115154Y415287D01*
X114164Y414877D01*
X113313Y414224D01*
X112661Y413374D01*
X112251Y412383D01*
X112111Y411321D01*
Y407620D01*
X112251Y406557D01*
X112661Y405567D01*
X113313Y404716D01*
X114164Y404064D01*
X115154Y403654D01*
X116217Y403514D01*
X117280Y403654D01*
X118270Y404064D01*
X119120Y404716D01*
X119773Y405567D01*
X120183Y406557D01*
X120323Y407620D01*
Y411321D01*
X120183Y412383D01*
X119773Y413374D01*
X119120Y414224D01*
X118270Y414877D01*
X117280Y415287D01*
X116217Y415427D01*
D02*
G37*
G36*
X106217D02*
X105154Y415287D01*
X104164Y414877D01*
X103314Y414224D01*
X102661Y413374D01*
X102251Y412383D01*
X102111Y411321D01*
Y407620D01*
X102251Y406557D01*
X102661Y405567D01*
X103314Y404716D01*
X104164Y404064D01*
X105154Y403654D01*
X106217Y403514D01*
X107280Y403654D01*
X108270Y404064D01*
X109120Y404716D01*
X109773Y405567D01*
X110183Y406557D01*
X110323Y407620D01*
Y411321D01*
X110183Y412383D01*
X109773Y413374D01*
X109120Y414224D01*
X108270Y414877D01*
X107280Y415287D01*
X106217Y415427D01*
D02*
G37*
G36*
X96217D02*
X95154Y415287D01*
X94164Y414877D01*
X93313Y414224D01*
X92661Y413374D01*
X92251Y412383D01*
X92111Y411321D01*
Y407620D01*
X92251Y406557D01*
X92661Y405567D01*
X93313Y404716D01*
X94164Y404064D01*
X95154Y403654D01*
X96217Y403514D01*
X97280Y403654D01*
X98270Y404064D01*
X99120Y404716D01*
X99773Y405567D01*
X100183Y406557D01*
X100323Y407620D01*
Y411321D01*
X100183Y412383D01*
X99773Y413374D01*
X99120Y414224D01*
X98270Y414877D01*
X97280Y415287D01*
X96217Y415427D01*
D02*
G37*
G36*
X86217D02*
X85154Y415287D01*
X84164Y414877D01*
X83314Y414224D01*
X82661Y413374D01*
X82251Y412383D01*
X82111Y411321D01*
Y407620D01*
X82251Y406557D01*
X82661Y405567D01*
X83314Y404716D01*
X84164Y404064D01*
X85154Y403654D01*
X86217Y403514D01*
X87280Y403654D01*
X88270Y404064D01*
X89120Y404716D01*
X89773Y405567D01*
X90183Y406557D01*
X90323Y407620D01*
Y411321D01*
X90183Y412383D01*
X89773Y413374D01*
X89120Y414224D01*
X88270Y414877D01*
X87280Y415287D01*
X86217Y415427D01*
D02*
G37*
G36*
X76217D02*
X75154Y415287D01*
X74164Y414877D01*
X73313Y414224D01*
X72661Y413374D01*
X72251Y412383D01*
X72111Y411321D01*
Y407620D01*
X72251Y406557D01*
X72661Y405567D01*
X73313Y404716D01*
X74164Y404064D01*
X75154Y403654D01*
X76217Y403514D01*
X77280Y403654D01*
X78270Y404064D01*
X79120Y404716D01*
X79773Y405567D01*
X80183Y406557D01*
X80323Y407620D01*
Y411321D01*
X80183Y412383D01*
X79773Y413374D01*
X79120Y414224D01*
X78270Y414877D01*
X77280Y415287D01*
X76217Y415427D01*
D02*
G37*
G36*
X352365Y405845D02*
X351184D01*
Y402794D01*
X352365D01*
Y405845D01*
D02*
G37*
G36*
X297247D02*
X296065D01*
Y402794D01*
X297247D01*
Y405845D01*
D02*
G37*
G36*
X349184D02*
X348002D01*
Y402794D01*
X349184D01*
Y405845D01*
D02*
G37*
G36*
X294065D02*
X292884D01*
Y402794D01*
X294065D01*
Y405845D01*
D02*
G37*
G36*
X381124Y406323D02*
Y401416D01*
X384663D01*
Y401916D01*
X384509Y403091D01*
X384055Y404185D01*
X383334Y405126D01*
X382394Y405847D01*
X381299Y406300D01*
X381124Y406323D01*
D02*
G37*
G36*
X379124D02*
X378950Y406300D01*
X377855Y405847D01*
X376915Y405126D01*
X376194Y404185D01*
X375740Y403091D01*
X375586Y401916D01*
Y401416D01*
X379124D01*
Y406323D01*
D02*
G37*
G36*
X426158Y412386D02*
X414386D01*
Y400614D01*
X415396Y400693D01*
X417357Y401164D01*
X419220Y401936D01*
X420939Y402989D01*
X422473Y404299D01*
X423782Y405832D01*
X424836Y407552D01*
X425607Y409415D01*
X426078Y411376D01*
X426158Y412386D01*
D02*
G37*
G36*
X412386D02*
X400614D01*
X400693Y411376D01*
X401164Y409415D01*
X401936Y407552D01*
X402989Y405832D01*
X404299Y404299D01*
X405832Y402989D01*
X407552Y401936D01*
X409415Y401164D01*
X411376Y400693D01*
X412386Y400614D01*
Y412386D01*
D02*
G37*
G36*
X32457D02*
X20685D01*
Y400614D01*
X21695Y400693D01*
X23656Y401164D01*
X25519Y401936D01*
X27239Y402989D01*
X28772Y404299D01*
X30081Y405832D01*
X31135Y407552D01*
X31907Y409415D01*
X32377Y411376D01*
X32457Y412386D01*
D02*
G37*
G36*
X18685D02*
X6913D01*
X6993Y411376D01*
X7463Y409415D01*
X8235Y407552D01*
X9289Y405832D01*
X10598Y404299D01*
X12132Y402989D01*
X13851Y401936D01*
X15714Y401164D01*
X17675Y400693D01*
X18685Y400614D01*
Y412386D01*
D02*
G37*
G36*
X320124Y426058D02*
X319062Y425918D01*
X318071Y425507D01*
X317221Y424855D01*
X316568Y424005D01*
X316158Y423014D01*
X316018Y421952D01*
Y418251D01*
X316158Y417188D01*
X316568Y416198D01*
X317221Y415347D01*
X318071Y414695D01*
X318144Y414665D01*
Y405845D01*
X318002D01*
Y397743D01*
X322365D01*
Y405845D01*
X322223D01*
Y414730D01*
X323028Y415347D01*
X323680Y416198D01*
X324091Y417188D01*
X324230Y418251D01*
Y421952D01*
X324091Y423014D01*
X323680Y424005D01*
X323028Y424855D01*
X322177Y425507D01*
X321187Y425918D01*
X320124Y426058D01*
D02*
G37*
G36*
X310124D02*
X309062Y425918D01*
X308071Y425507D01*
X307221Y424855D01*
X306569Y424005D01*
X306158Y423014D01*
X306018Y421952D01*
Y418251D01*
X306158Y417188D01*
X306569Y416198D01*
X307221Y415347D01*
X308071Y414695D01*
X308085Y414689D01*
Y412991D01*
X308241Y412211D01*
X308682Y411550D01*
X313144Y407088D01*
Y405845D01*
X313002D01*
Y397743D01*
X317365D01*
Y405845D01*
X317223D01*
Y407932D01*
X317067Y408713D01*
X316625Y409374D01*
X312164Y413836D01*
Y414689D01*
X312177Y414695D01*
X313028Y415347D01*
X313680Y416198D01*
X314090Y417188D01*
X314230Y418251D01*
Y421952D01*
X314090Y423014D01*
X313680Y424005D01*
X313028Y424855D01*
X312177Y425507D01*
X311187Y425918D01*
X310124Y426058D01*
D02*
G37*
G36*
X360124D02*
X359062Y425918D01*
X358071Y425507D01*
X357221Y424855D01*
X356569Y424005D01*
X356158Y423014D01*
X356018Y421952D01*
Y418251D01*
X356158Y417188D01*
X356569Y416198D01*
X357221Y415347D01*
X358071Y414695D01*
X358085Y414689D01*
Y400287D01*
X355422Y397624D01*
X352816D01*
X352365Y397743D01*
X352365Y398125D01*
Y400794D01*
X350184D01*
X348002D01*
Y398872D01*
X347502Y398604D01*
X347365Y398696D01*
Y405845D01*
X343002D01*
Y397743D01*
X343144D01*
Y397647D01*
X343300Y396867D01*
X343742Y396205D01*
X345804Y394143D01*
X346465Y393701D01*
X347246Y393546D01*
X347246Y393546D01*
X356267D01*
X357047Y393701D01*
X357709Y394143D01*
X361566Y398001D01*
X362008Y398662D01*
X362164Y399443D01*
X362164Y399443D01*
Y414689D01*
X362177Y414695D01*
X363028Y415347D01*
X363680Y416198D01*
X364090Y417188D01*
X364230Y418251D01*
Y421952D01*
X364090Y423014D01*
X363680Y424005D01*
X363028Y424855D01*
X362177Y425507D01*
X361187Y425918D01*
X360124Y426058D01*
D02*
G37*
G36*
X384663Y399416D02*
X381124D01*
Y394509D01*
X381299Y394532D01*
X382394Y394985D01*
X383334Y395707D01*
X384055Y396647D01*
X384509Y397741D01*
X384663Y398916D01*
Y399416D01*
D02*
G37*
G36*
X379124D02*
X375586D01*
Y398916D01*
X375740Y397741D01*
X376194Y396647D01*
X376915Y395707D01*
X377855Y394985D01*
X378950Y394532D01*
X379124Y394509D01*
Y399416D01*
D02*
G37*
G36*
X370124Y426058D02*
X369062Y425918D01*
X368071Y425507D01*
X367221Y424855D01*
X366568Y424005D01*
X366158Y423014D01*
X366018Y421952D01*
Y418251D01*
X366158Y417188D01*
X366568Y416198D01*
X367221Y415347D01*
X367351Y415248D01*
Y406416D01*
X365624D01*
Y394416D01*
X367351D01*
Y388212D01*
X366915Y387877D01*
X366581Y387442D01*
X362948D01*
X358744Y391645D01*
X358170Y392086D01*
X357501Y392363D01*
X356783Y392457D01*
X263747D01*
X263029Y392363D01*
X262360Y392086D01*
X261786Y391645D01*
X258105Y387964D01*
X258102Y387964D01*
X257605Y388134D01*
Y389988D01*
X257450Y390768D01*
X257007Y391429D01*
X255353Y393084D01*
X255544Y393546D01*
X258003D01*
X258784Y393701D01*
X259445Y394143D01*
X261507Y396205D01*
X261949Y396867D01*
X262037Y397308D01*
X262246Y397743D01*
X262246Y397743D01*
X262246Y397743D01*
Y405798D01*
X262246Y405845D01*
X262308Y406088D01*
X262504D01*
X262884Y405613D01*
Y397743D01*
X263026D01*
Y397647D01*
X263181Y396867D01*
X263623Y396205D01*
X265686Y394143D01*
X266347Y393701D01*
X267127Y393546D01*
X267127Y393546D01*
X297212D01*
X297992Y393701D01*
X298654Y394143D01*
X301566Y397056D01*
X301566Y397056D01*
X302008Y397717D01*
X302164Y398498D01*
Y414689D01*
X302177Y414695D01*
X303028Y415347D01*
X303680Y416198D01*
X304090Y417188D01*
X304230Y418251D01*
Y421952D01*
X304090Y423014D01*
X303680Y424005D01*
X303028Y424855D01*
X302177Y425507D01*
X301187Y425918D01*
X300124Y426058D01*
X299062Y425918D01*
X298071Y425507D01*
X297221Y424855D01*
X296568Y424005D01*
X296158Y423014D01*
X296018Y421952D01*
Y418251D01*
X296158Y417188D01*
X296568Y416198D01*
X297221Y415347D01*
X298071Y414695D01*
X298085Y414689D01*
Y399342D01*
X297708Y398966D01*
X297247Y399157D01*
Y400794D01*
X295065D01*
X292884D01*
Y398149D01*
X292565Y397963D01*
X292247Y398149D01*
Y405845D01*
X292105D01*
Y414665D01*
X292177Y414695D01*
X293028Y415347D01*
X293680Y416198D01*
X294091Y417188D01*
X294230Y418251D01*
Y421952D01*
X294091Y423014D01*
X293680Y424005D01*
X293028Y424855D01*
X292177Y425507D01*
X291187Y425918D01*
X290124Y426058D01*
X289062Y425918D01*
X288071Y425507D01*
X287221Y424855D01*
X286568Y424005D01*
X286158Y423014D01*
X286018Y421952D01*
Y418251D01*
X286158Y417188D01*
X286568Y416198D01*
X287221Y415347D01*
X288026Y414730D01*
Y405845D01*
X287884D01*
Y398149D01*
X287565Y397963D01*
X287246Y398149D01*
Y405845D01*
X287105D01*
Y407813D01*
X286949Y408593D01*
X286507Y409255D01*
X286507Y409255D01*
X282164Y413599D01*
Y414689D01*
X282177Y414695D01*
X283028Y415347D01*
X283680Y416198D01*
X284090Y417188D01*
X284230Y418251D01*
Y421952D01*
X284090Y423014D01*
X283680Y424005D01*
X283028Y424855D01*
X282177Y425507D01*
X281187Y425918D01*
X280124Y426058D01*
X279062Y425918D01*
X278071Y425507D01*
X277221Y424855D01*
X276569Y424005D01*
X276158Y423014D01*
X276018Y421952D01*
Y418251D01*
X276158Y417188D01*
X276569Y416198D01*
X277221Y415347D01*
X278071Y414695D01*
X278085Y414689D01*
Y412795D01*
X277991Y412715D01*
X277614Y412559D01*
X276606Y413567D01*
X275945Y414009D01*
X275164Y414164D01*
X273253D01*
X272754Y414663D01*
X272786Y415162D01*
X273028Y415347D01*
X273680Y416198D01*
X274091Y417188D01*
X274230Y418251D01*
Y421952D01*
X274091Y423014D01*
X273680Y424005D01*
X273028Y424855D01*
X272177Y425507D01*
X271187Y425918D01*
X270124Y426058D01*
X269062Y425918D01*
X268071Y425507D01*
X267221Y424855D01*
X266568Y424005D01*
X266158Y423014D01*
X266018Y421952D01*
Y418251D01*
X266158Y417188D01*
X266568Y416198D01*
X267221Y415347D01*
X268071Y414695D01*
X268085Y414689D01*
Y414409D01*
X268191Y413876D01*
X267853Y413376D01*
X263094D01*
X262244Y414227D01*
X262239Y414257D01*
X262268Y414764D01*
X263028Y415347D01*
X263680Y416198D01*
X264090Y417188D01*
X264230Y418251D01*
Y421952D01*
X264090Y423014D01*
X263680Y424005D01*
X263028Y424855D01*
X262177Y425507D01*
X261187Y425918D01*
X260124Y426058D01*
X259062Y425918D01*
X258071Y425507D01*
X257221Y424855D01*
X256569Y424005D01*
X256158Y423014D01*
X256018Y421952D01*
Y418251D01*
X256158Y417188D01*
X256569Y416198D01*
X257221Y415347D01*
X258071Y414695D01*
X258085Y414689D01*
Y413463D01*
X258159Y413089D01*
X257749Y412589D01*
X253962D01*
X252324Y414227D01*
X252304Y414291D01*
X252335Y414816D01*
X253028Y415347D01*
X253680Y416198D01*
X254090Y417188D01*
X254230Y418251D01*
Y421952D01*
X254090Y423014D01*
X253680Y424005D01*
X253028Y424855D01*
X252177Y425507D01*
X251187Y425918D01*
X250124Y426058D01*
X249062Y425918D01*
X248071Y425507D01*
X247221Y424855D01*
X246568Y424005D01*
X246158Y423014D01*
X246018Y421952D01*
Y418251D01*
X246158Y417188D01*
X246568Y416198D01*
X247221Y415347D01*
X248071Y414695D01*
X248085Y414689D01*
Y413543D01*
X248240Y412762D01*
X248682Y412101D01*
X251675Y409108D01*
X251675Y409108D01*
X252337Y408666D01*
X253117Y408511D01*
X253117Y408511D01*
X257950D01*
X259565Y406895D01*
X260227Y406453D01*
X260770Y406345D01*
X260720Y405845D01*
X257884D01*
Y398350D01*
X257159Y397624D01*
X245548D01*
X242164Y401009D01*
Y414689D01*
X242177Y414695D01*
X243028Y415347D01*
X243680Y416198D01*
X244091Y417188D01*
X244230Y418251D01*
Y421952D01*
X244091Y423014D01*
X243680Y424005D01*
X243028Y424855D01*
X242177Y425507D01*
X241187Y425918D01*
X240124Y426058D01*
X239062Y425918D01*
X238071Y425507D01*
X237221Y424855D01*
X236568Y424005D01*
X236158Y423014D01*
X236018Y421952D01*
Y418251D01*
X236158Y417188D01*
X236568Y416198D01*
X237221Y415347D01*
X238071Y414695D01*
X238085Y414689D01*
Y400699D01*
X237701Y400384D01*
X235064D01*
X232164Y403285D01*
Y414689D01*
X232177Y414695D01*
X233028Y415347D01*
X233680Y416198D01*
X234090Y417188D01*
X234230Y418251D01*
Y421952D01*
X234090Y423014D01*
X233680Y424005D01*
X233028Y424855D01*
X232177Y425507D01*
X231187Y425918D01*
X230124Y426058D01*
X229062Y425918D01*
X228071Y425507D01*
X227221Y424855D01*
X226569Y424005D01*
X226158Y423014D01*
X226018Y421952D01*
Y418251D01*
X226158Y417188D01*
X226569Y416198D01*
X227221Y415347D01*
X228071Y414695D01*
X228085Y414689D01*
Y402440D01*
X228240Y401660D01*
X228682Y400998D01*
X232778Y396903D01*
X233439Y396461D01*
X234220Y396306D01*
X236857D01*
X242327Y390835D01*
X242989Y390393D01*
X243769Y390238D01*
X243769Y390238D01*
X252431D01*
X253526Y389143D01*
Y373458D01*
X252597D01*
Y365957D01*
X257516D01*
Y364881D01*
X255565D01*
Y361654D01*
X228734D01*
X221117Y369271D01*
X220543Y369712D01*
X219874Y369989D01*
X219156Y370084D01*
X210893D01*
Y371060D01*
X209963D01*
Y375463D01*
X209873Y375917D01*
X210327Y376199D01*
X211029Y375661D01*
X212184Y375182D01*
X212424Y375150D01*
Y379810D01*
Y384469D01*
X212184Y384438D01*
X211029Y383959D01*
X210036Y383198D01*
X209275Y382205D01*
X209108Y381803D01*
X208608Y381902D01*
Y414364D01*
X208608Y414364D01*
X208453Y415144D01*
X208011Y415806D01*
X208011Y415806D01*
X202544Y421273D01*
X201883Y421715D01*
X201102Y421870D01*
X176903D01*
X176122Y421715D01*
X175461Y421273D01*
X173072Y418884D01*
X170683Y421273D01*
X170022Y421715D01*
X169241Y421870D01*
X151331D01*
X151331Y421870D01*
X150550Y421715D01*
X149889Y421273D01*
X149889Y421273D01*
X144422Y415806D01*
X143980Y415144D01*
X143825Y414364D01*
Y376818D01*
X143980Y376038D01*
X144422Y375377D01*
X145180Y374619D01*
Y371060D01*
X144251D01*
Y363560D01*
X150188D01*
Y371060D01*
X149258D01*
Y375463D01*
X149168Y375917D01*
X149622Y376199D01*
X150323Y375661D01*
X151479Y375182D01*
X151719Y375150D01*
Y379810D01*
Y384469D01*
X151479Y384438D01*
X150323Y383959D01*
X149331Y383198D01*
X148570Y382205D01*
X148403Y381803D01*
X147903Y381902D01*
Y413519D01*
X152175Y417792D01*
X168396D01*
X171033Y415155D01*
Y401412D01*
X165604D01*
Y401412D01*
X165111Y401431D01*
Y405866D01*
X165467Y406013D01*
X166460Y406775D01*
X167221Y407767D01*
X167700Y408922D01*
X167863Y410162D01*
X167700Y411402D01*
X167221Y412558D01*
X166460Y413550D01*
X165467Y414311D01*
X164312Y414790D01*
X163072Y414953D01*
X161832Y414790D01*
X160676Y414311D01*
X159684Y413550D01*
X158923Y412558D01*
X158444Y411402D01*
X158281Y410162D01*
X158444Y408922D01*
X158923Y407767D01*
X159684Y406775D01*
X160676Y406013D01*
X161033Y405866D01*
Y397662D01*
Y389459D01*
X160676Y389312D01*
X159684Y388550D01*
X158923Y387558D01*
X158444Y386402D01*
X158281Y385162D01*
X158444Y383922D01*
X158923Y382767D01*
X159684Y381775D01*
X160676Y381013D01*
X161033Y380866D01*
Y372395D01*
X161188Y371614D01*
X161630Y370953D01*
X171178Y361405D01*
Y340707D01*
X165604D01*
Y340707D01*
X165111Y340725D01*
Y345161D01*
X165467Y345308D01*
X166460Y346070D01*
X167221Y347062D01*
X167700Y348217D01*
X167863Y349457D01*
X167700Y350697D01*
X167221Y351853D01*
X166460Y352845D01*
X165467Y353607D01*
X164312Y354085D01*
X163072Y354248D01*
X161832Y354085D01*
X160676Y353607D01*
X159684Y352845D01*
X158923Y351853D01*
X158444Y350697D01*
X158281Y349457D01*
X158444Y348217D01*
X158923Y347062D01*
X159684Y346070D01*
X160676Y345308D01*
X161033Y345161D01*
Y336957D01*
Y328754D01*
X160676Y328607D01*
X159684Y327845D01*
X158923Y326853D01*
X158444Y325697D01*
X158281Y324457D01*
X158444Y323217D01*
X158923Y322062D01*
X159684Y321070D01*
X160676Y320308D01*
X161033Y320161D01*
Y316449D01*
X159872Y315289D01*
X143059D01*
X142278Y315134D01*
X141617Y314692D01*
X135677Y308752D01*
X135235Y308091D01*
X135080Y307311D01*
Y300261D01*
X135066Y300255D01*
X134216Y299603D01*
X133563Y298752D01*
X133153Y297762D01*
X133013Y296699D01*
Y292998D01*
X133153Y291936D01*
X133563Y290945D01*
X134216Y290095D01*
X135066Y289442D01*
X136057Y289032D01*
X137119Y288892D01*
X138182Y289032D01*
X139172Y289442D01*
X140023Y290095D01*
X140675Y290945D01*
X141085Y291936D01*
X141225Y292998D01*
Y296699D01*
X141085Y297762D01*
X140675Y298752D01*
X140023Y299603D01*
X139172Y300255D01*
X139158Y300261D01*
Y306466D01*
X143903Y311211D01*
X160717D01*
X161497Y311366D01*
X162159Y311808D01*
X164514Y314163D01*
X164956Y314825D01*
X165111Y315605D01*
Y320161D01*
X165467Y320308D01*
X166460Y321070D01*
X167221Y322062D01*
X167700Y323217D01*
X167863Y324457D01*
X167700Y325697D01*
X167221Y326853D01*
X166460Y327845D01*
X165467Y328607D01*
X165111Y328754D01*
Y333189D01*
X165604Y333207D01*
Y333207D01*
X171178D01*
Y319368D01*
X162099Y310289D01*
X151291D01*
X150511Y310134D01*
X149849Y309692D01*
X145677Y305520D01*
X145235Y304858D01*
X145080Y304078D01*
Y300261D01*
X145066Y300255D01*
X144216Y299603D01*
X143563Y298752D01*
X143153Y297762D01*
X143013Y296699D01*
Y292998D01*
X143153Y291936D01*
X143563Y290945D01*
X144216Y290095D01*
X145066Y289442D01*
X146057Y289032D01*
X147119Y288892D01*
X148182Y289032D01*
X149172Y289442D01*
X150023Y290095D01*
X150675Y290945D01*
X151085Y291936D01*
X151225Y292998D01*
Y296699D01*
X151085Y297762D01*
X150675Y298752D01*
X150023Y299603D01*
X149172Y300255D01*
X149159Y300261D01*
Y303233D01*
X152136Y306211D01*
X162943D01*
X163724Y306366D01*
X164385Y306808D01*
X174659Y317081D01*
X175101Y317743D01*
X175256Y318523D01*
Y333207D01*
X180541D01*
Y340707D01*
X179611D01*
Y345111D01*
X179521Y345565D01*
X179975Y345847D01*
X180676Y345308D01*
X181832Y344830D01*
X182072Y344798D01*
Y349457D01*
Y354117D01*
X181832Y354085D01*
X180676Y353607D01*
X179684Y352845D01*
X178923Y351853D01*
X178756Y351450D01*
X178256Y351550D01*
Y363492D01*
X178256Y363492D01*
X178101Y364273D01*
X177659Y364934D01*
X177659Y364934D01*
X175111Y367482D01*
Y393912D01*
X180541D01*
Y401412D01*
X175111D01*
Y415155D01*
X177747Y417792D01*
X200258D01*
X204530Y413519D01*
Y376818D01*
X204685Y376038D01*
X205127Y375377D01*
X205885Y374619D01*
Y371060D01*
X204956D01*
Y363560D01*
X210893D01*
Y364536D01*
X218007D01*
X225624Y356919D01*
X226199Y356479D01*
X226868Y356202D01*
X227585Y356107D01*
X255565D01*
Y352881D01*
X257516D01*
Y346849D01*
X256856Y346342D01*
X256135Y345402D01*
X255681Y344307D01*
X255526Y343133D01*
X255681Y341958D01*
X256135Y340863D01*
X256856Y339923D01*
X257796Y339202D01*
X258891Y338749D01*
X260065Y338594D01*
X261240Y338749D01*
X262335Y339202D01*
X263275Y339923D01*
X263996Y340863D01*
X264450Y341958D01*
X264604Y343133D01*
X264450Y344307D01*
X263996Y345402D01*
X263275Y346342D01*
X262614Y346849D01*
Y352881D01*
X264565D01*
Y364881D01*
X262614D01*
Y365957D01*
X267534D01*
Y373458D01*
X266605D01*
Y374022D01*
X266812Y374332D01*
X266968Y375113D01*
Y376483D01*
X267247D01*
Y384585D01*
X263279D01*
X263071Y385085D01*
X264896Y386910D01*
X288026D01*
Y384585D01*
X287884D01*
Y376483D01*
X292247D01*
Y384585D01*
X292105D01*
Y386910D01*
X312410D01*
Y380534D01*
X312504Y379816D01*
X312634Y379502D01*
Y373458D01*
X307715D01*
Y371747D01*
X299238D01*
X297105Y373880D01*
Y376483D01*
X297247D01*
Y384585D01*
X292884D01*
Y376483D01*
X293026D01*
Y373035D01*
X293181Y372255D01*
X293623Y371593D01*
X296951Y368266D01*
X297613Y367824D01*
X298393Y367668D01*
X307715D01*
Y365957D01*
X312634D01*
Y364881D01*
X310683D01*
Y352881D01*
X312634D01*
Y346849D01*
X311974Y346342D01*
X311253Y345402D01*
X310799Y344307D01*
X310645Y343133D01*
X310799Y341958D01*
X311253Y340863D01*
X311974Y339923D01*
X312914Y339202D01*
X314009Y338749D01*
X315183Y338594D01*
X316358Y338749D01*
X317453Y339202D01*
X318393Y339923D01*
X319114Y340863D01*
X319568Y341958D01*
X319722Y343133D01*
X319568Y344307D01*
X319114Y345402D01*
X318393Y346342D01*
X317733Y346849D01*
Y352881D01*
X319684D01*
Y364881D01*
X317733D01*
Y365957D01*
X322652D01*
Y367668D01*
X322802D01*
X323583Y367824D01*
X324244Y368266D01*
X326625Y370647D01*
X327067Y371308D01*
X327223Y372089D01*
Y376483D01*
X327365D01*
Y384585D01*
X323002D01*
Y376483D01*
X323144D01*
Y373476D01*
X322652Y373458D01*
Y373458D01*
X317733D01*
Y376095D01*
X318002Y376483D01*
X318232Y376483D01*
X322365D01*
Y384585D01*
X318002Y384585D01*
X317957Y385067D01*
Y386910D01*
X343144D01*
Y384585D01*
X343002D01*
Y376483D01*
X347365D01*
Y384585D01*
X347223D01*
Y386910D01*
X355634D01*
X359837Y382707D01*
X360412Y382266D01*
X361081Y381989D01*
X361799Y381894D01*
X366581D01*
X366915Y381459D01*
X367351Y381124D01*
Y362563D01*
Y302806D01*
X336068Y271523D01*
X244717D01*
X243999Y271429D01*
X243330Y271152D01*
X242756Y270711D01*
X216068Y244023D01*
X51217D01*
X50499Y243929D01*
X49830Y243652D01*
X49255Y243211D01*
X45158Y239113D01*
X44717Y238539D01*
X44440Y237870D01*
X44346Y237152D01*
Y229889D01*
X43910Y229554D01*
X43189Y228614D01*
X42735Y227520D01*
X42581Y226345D01*
X42735Y225170D01*
X43189Y224076D01*
X43910Y223135D01*
X44346Y222801D01*
Y216597D01*
X42619D01*
Y204597D01*
X44346D01*
Y199702D01*
X44216Y199603D01*
X43563Y198752D01*
X43153Y197762D01*
X43038Y196888D01*
X28946D01*
Y198349D01*
X20446D01*
Y191375D01*
X13932D01*
X11000Y194308D01*
Y310540D01*
X18915Y318456D01*
X19477Y319187D01*
X19829Y320039D01*
X19950Y320952D01*
X19950Y320952D01*
Y329767D01*
X19829Y330681D01*
X19811Y330726D01*
Y330949D01*
X19695Y331826D01*
X19356Y332644D01*
X19193Y332857D01*
Y363911D01*
X19356Y364123D01*
X19695Y364941D01*
X19811Y365819D01*
Y368181D01*
X19695Y369059D01*
X19356Y369877D01*
X18817Y370579D01*
X18115Y371118D01*
X17297Y371457D01*
X16419Y371572D01*
X15542Y371457D01*
X14724Y371118D01*
X14021Y370579D01*
X13482Y369877D01*
X13144Y369059D01*
X13028Y368181D01*
Y365819D01*
X13144Y364941D01*
X13482Y364123D01*
X13645Y363911D01*
Y332857D01*
X13482Y332644D01*
X13144Y331826D01*
X13028Y330949D01*
Y330726D01*
X13009Y330681D01*
X12889Y329767D01*
Y322414D01*
X4973Y314499D01*
X4412Y313768D01*
X4060Y312916D01*
X3939Y312002D01*
Y193559D01*
X4060Y192645D01*
X4412Y191794D01*
X4973Y191062D01*
X5704Y190501D01*
X6556Y190149D01*
X6607Y190142D01*
X10539Y186209D01*
X11166Y185729D01*
X11896Y185426D01*
X12679Y185323D01*
X17133D01*
Y177023D01*
X17288Y176242D01*
X17730Y175581D01*
X21094Y172217D01*
Y171571D01*
X20620Y171411D01*
X20405Y171690D01*
X19466Y172412D01*
X18371Y172865D01*
X18196Y172888D01*
Y168481D01*
X17196D01*
D01*
X18196D01*
Y164074D01*
X18371Y164097D01*
X19466Y164550D01*
X20405Y165271D01*
X20620Y165551D01*
X21094Y165390D01*
Y160929D01*
X21249Y160149D01*
X21691Y159487D01*
X24447Y156731D01*
X25108Y156289D01*
X25889Y156134D01*
X30617D01*
X32024Y154727D01*
X31817Y154227D01*
X26957D01*
Y153712D01*
X26567Y153445D01*
X20630D01*
Y147508D01*
X26567D01*
X26957Y147242D01*
Y146727D01*
X32511D01*
Y144259D01*
X32666Y143479D01*
X33108Y142817D01*
X36836Y139089D01*
Y138479D01*
X35957D01*
Y130979D01*
X41894D01*
Y138479D01*
X40914D01*
Y139934D01*
X40759Y140714D01*
X40317Y141376D01*
X36589Y145104D01*
Y146727D01*
X41894D01*
Y152279D01*
X42394Y152379D01*
X42443Y152261D01*
X43084Y151425D01*
X54252Y140257D01*
Y121020D01*
X41894D01*
Y122731D01*
X35957D01*
Y115231D01*
X41894D01*
Y116942D01*
X54252D01*
Y80253D01*
X52326D01*
Y71253D01*
X64326D01*
Y71718D01*
X83114D01*
Y71253D01*
X95114D01*
Y71718D01*
X113902D01*
Y71253D01*
X125902D01*
Y71718D01*
X140508D01*
X147432Y64794D01*
Y47906D01*
X147432Y47906D01*
X147570Y46862D01*
X147973Y45889D01*
X148614Y45053D01*
X160331Y33336D01*
Y24997D01*
X159748Y24237D01*
X159653Y24009D01*
X149155D01*
X149060Y24237D01*
X148206Y25351D01*
X147139Y26169D01*
Y27110D01*
X147044Y27828D01*
X146767Y28497D01*
X146326Y29071D01*
X143262Y32135D01*
X142688Y32576D01*
X142019Y32853D01*
X141301Y32948D01*
X136341D01*
Y35702D01*
X126341D01*
Y24646D01*
X136341D01*
Y27400D01*
X140152D01*
X141239Y26313D01*
X141206Y25814D01*
X140602Y25351D01*
X139748Y24237D01*
X139210Y22940D01*
X139027Y21549D01*
Y18399D01*
X139210Y17008D01*
X139748Y15711D01*
X140602Y14597D01*
X141222Y14121D01*
X141255Y13622D01*
X140191Y12558D01*
X136341D01*
Y15302D01*
X126341D01*
Y4247D01*
X136341D01*
Y7011D01*
X141340D01*
X142058Y7105D01*
X142727Y7382D01*
X143301Y7823D01*
X146365Y10887D01*
X146806Y11462D01*
X147083Y12131D01*
X147178Y12849D01*
Y13808D01*
X148206Y14597D01*
X149060Y15711D01*
X149155Y15939D01*
X159653D01*
X159748Y15711D01*
X160602Y14597D01*
X161716Y13743D01*
X163012Y13206D01*
X164404Y13023D01*
X165796Y13206D01*
X167092Y13743D01*
X168206Y14597D01*
X169060Y15711D01*
X169597Y17008D01*
X169781Y18399D01*
Y21549D01*
X169597Y22940D01*
X169060Y24237D01*
X168400Y25098D01*
Y35007D01*
X168262Y36051D01*
X167859Y37025D01*
X167218Y37860D01*
X155501Y49577D01*
Y66465D01*
X155501Y66465D01*
X155364Y67509D01*
X154961Y68482D01*
X154320Y69318D01*
X154319Y69318D01*
X145032Y78605D01*
X144196Y79247D01*
X143223Y79650D01*
X142179Y79787D01*
X142179Y79787D01*
X125902D01*
Y80253D01*
X124399D01*
Y82154D01*
X127941Y85696D01*
X146923D01*
X161999Y70620D01*
Y55085D01*
X161999Y55085D01*
X162136Y54040D01*
X162540Y53067D01*
X163181Y52232D01*
X182078Y33334D01*
X182078Y33334D01*
X182914Y32693D01*
X183887Y32290D01*
X184931Y32153D01*
X238582D01*
X247353Y23382D01*
Y17285D01*
X259195D01*
Y29128D01*
X253018D01*
X243106Y39040D01*
X242271Y39681D01*
X241298Y40084D01*
X240253Y40222D01*
X240253Y40222D01*
X186602D01*
X170068Y56756D01*
Y72291D01*
X169931Y73336D01*
X169528Y74309D01*
X168886Y75144D01*
X151447Y92583D01*
X150612Y93224D01*
X149639Y93627D01*
X148594Y93765D01*
X148594Y93765D01*
X126270D01*
X125226Y93627D01*
X124252Y93224D01*
X123417Y92583D01*
X123417Y92583D01*
X117511Y86678D01*
X116870Y85842D01*
X116467Y84869D01*
X116330Y83825D01*
X116330Y83825D01*
Y80253D01*
X113902D01*
Y79787D01*
X95114D01*
Y80253D01*
X83114D01*
Y79787D01*
X64326D01*
Y80253D01*
X62321D01*
Y118981D01*
Y141928D01*
X62321Y141928D01*
X62184Y142972D01*
X61781Y143946D01*
X61140Y144781D01*
X61140Y144781D01*
X49971Y155949D01*
Y162981D01*
X50726D01*
Y173981D01*
X41226D01*
Y172515D01*
X34215D01*
X33371Y172865D01*
X32196Y173020D01*
X31021Y172865D01*
X29927Y172412D01*
X28987Y171690D01*
X28722Y171346D01*
X28222Y171515D01*
Y174304D01*
X28067Y175085D01*
X27625Y175746D01*
X26735Y176636D01*
Y178349D01*
X28946D01*
Y185323D01*
X30077D01*
X39620Y175780D01*
X39620Y175780D01*
X40247Y175299D01*
X40977Y174997D01*
X41760Y174893D01*
X41760Y174893D01*
X70467D01*
X77742Y167618D01*
X77749Y167567D01*
X78102Y166716D01*
X78663Y165985D01*
X79394Y165424D01*
X80246Y165071D01*
X81159Y164951D01*
X197618D01*
X198084Y164343D01*
X199076Y163582D01*
X200232Y163103D01*
X201472Y162940D01*
X202712Y163103D01*
X203867Y163582D01*
X204859Y164343D01*
X205326Y164951D01*
X211810D01*
X212332Y164550D01*
X213426Y164097D01*
X214601Y163942D01*
X215776Y164097D01*
X216871Y164550D01*
X217811Y165271D01*
X218532Y166211D01*
X218985Y167306D01*
X219140Y168481D01*
X218985Y169656D01*
X218532Y170750D01*
X217811Y171690D01*
X216871Y172412D01*
X215776Y172865D01*
X214601Y173020D01*
X213426Y172865D01*
X212332Y172412D01*
X211810Y172011D01*
X205326D01*
X204859Y172619D01*
X203867Y173380D01*
X202712Y173859D01*
X201472Y174022D01*
X200232Y173859D01*
X199076Y173380D01*
X198084Y172619D01*
X197618Y172011D01*
X81908D01*
X73860Y180059D01*
X73233Y180540D01*
X72504Y180842D01*
X71721Y180945D01*
X43013D01*
X33470Y190489D01*
X32843Y190970D01*
X32114Y191272D01*
X31330Y191375D01*
X28946D01*
Y192810D01*
X43038D01*
X43153Y191936D01*
X43563Y190945D01*
X44216Y190095D01*
X45066Y189443D01*
X46057Y189032D01*
X47119Y188892D01*
X48182Y189032D01*
X49172Y189443D01*
X50023Y190095D01*
X50675Y190945D01*
X51085Y191936D01*
X51225Y192998D01*
Y196699D01*
X51085Y197762D01*
X50675Y198752D01*
X50023Y199603D01*
X49893Y199702D01*
Y204597D01*
X51619D01*
Y216597D01*
X49893D01*
Y222801D01*
X50329Y223135D01*
X51050Y224076D01*
X51503Y225170D01*
X51658Y226345D01*
X51503Y227520D01*
X51050Y228614D01*
X50329Y229554D01*
X49893Y229889D01*
Y236003D01*
X52366Y238476D01*
X217217D01*
X217935Y238571D01*
X218604Y238848D01*
X219178Y239288D01*
X245866Y265976D01*
X337217D01*
X337935Y266071D01*
X338604Y266348D01*
X339178Y266789D01*
X372086Y299696D01*
X372527Y300271D01*
X372804Y300939D01*
X372898Y301657D01*
Y357365D01*
X372924Y357862D01*
X373005Y358322D01*
X373129Y358692D01*
X373286Y358983D01*
X373474Y359213D01*
X373704Y359402D01*
X373995Y359558D01*
X374366Y359682D01*
X374825Y359763D01*
X375323Y359789D01*
X393915D01*
Y358813D01*
Y351726D01*
Y349390D01*
X396883D01*
X399852D01*
Y351726D01*
Y358813D01*
Y366313D01*
X399657D01*
Y372267D01*
X403006Y375616D01*
X411538D01*
X412009Y375002D01*
X413001Y374240D01*
X414157Y373762D01*
X415069Y373642D01*
Y373137D01*
X414157Y373017D01*
X413001Y372539D01*
X412009Y371777D01*
X411248Y370785D01*
X410769Y369630D01*
X410738Y369390D01*
X416147D01*
X421556D01*
X421525Y369630D01*
X421046Y370785D01*
X420285Y371777D01*
X419292Y372539D01*
X418137Y373017D01*
X417225Y373137D01*
Y373642D01*
X418137Y373762D01*
X419292Y374240D01*
X420285Y375002D01*
X420756Y375616D01*
X421268D01*
X422943Y373941D01*
Y319703D01*
X421268Y318028D01*
X420756D01*
X420285Y318642D01*
X419292Y319404D01*
X418137Y319882D01*
X416897Y320045D01*
X415397D01*
X414157Y319882D01*
X413001Y319404D01*
X412009Y318642D01*
X411538Y318028D01*
X401857D01*
X401139Y317934D01*
X400470Y317656D01*
X399896Y317216D01*
X394922Y312242D01*
X394481Y311668D01*
X394204Y310999D01*
X394110Y310281D01*
Y303178D01*
X393915D01*
Y295678D01*
Y289004D01*
X393915D01*
Y286254D01*
X396883D01*
X399852D01*
Y288591D01*
X399852D01*
Y295678D01*
Y303178D01*
X399657D01*
Y309132D01*
X403006Y312481D01*
X411538D01*
X412009Y311867D01*
X413001Y311105D01*
X414157Y310627D01*
X415069Y310507D01*
Y310002D01*
X414157Y309882D01*
X413001Y309403D01*
X412009Y308642D01*
X411248Y307650D01*
X410769Y306494D01*
X410738Y306254D01*
X416147D01*
X421556D01*
X421525Y306494D01*
X421046Y307650D01*
X420285Y308642D01*
X419292Y309403D01*
X418137Y309882D01*
X417225Y310002D01*
Y310507D01*
X418137Y310627D01*
X419292Y311105D01*
X420285Y311867D01*
X420756Y312481D01*
X422417D01*
X423135Y312575D01*
X423804Y312852D01*
X424378Y313293D01*
X427678Y316593D01*
X428119Y317167D01*
X428396Y317836D01*
X428491Y318554D01*
Y375090D01*
X428396Y375807D01*
X428119Y376477D01*
X427678Y377051D01*
X424378Y380351D01*
X423804Y380792D01*
X423135Y381069D01*
X422417Y381163D01*
X420756D01*
X420285Y381777D01*
X419292Y382539D01*
X418137Y383017D01*
X416897Y383181D01*
X415397D01*
X414157Y383017D01*
X413001Y382539D01*
X412009Y381777D01*
X411538Y381163D01*
X401857D01*
X401139Y381069D01*
X400470Y380792D01*
X399895Y380351D01*
X394922Y375377D01*
X394481Y374803D01*
X394204Y374134D01*
X394110Y373416D01*
Y366313D01*
X393915D01*
Y365337D01*
X375323D01*
X374825Y365363D01*
X374365Y365444D01*
X373995Y365567D01*
X373704Y365724D01*
X373474Y365912D01*
X373286Y366143D01*
X373129Y366434D01*
X373005Y366804D01*
X372924Y367264D01*
X372898Y367761D01*
Y381124D01*
X373334Y381459D01*
X374055Y382399D01*
X374509Y383493D01*
X374663Y384668D01*
X374509Y385843D01*
X374055Y386937D01*
X373334Y387877D01*
X372898Y388212D01*
Y394416D01*
X374624D01*
Y406416D01*
X372898D01*
Y415248D01*
X373028Y415347D01*
X373680Y416198D01*
X374091Y417188D01*
X374230Y418251D01*
Y421952D01*
X374091Y423014D01*
X373680Y424005D01*
X373028Y424855D01*
X372177Y425507D01*
X371187Y425918D01*
X370124Y426058D01*
D02*
G37*
G36*
X184072Y389822D02*
Y386162D01*
X187731D01*
X187700Y386402D01*
X187221Y387558D01*
X186460Y388550D01*
X185467Y389312D01*
X184312Y389790D01*
X184072Y389822D01*
D02*
G37*
G36*
X182072D02*
X181832Y389790D01*
X180676Y389312D01*
X179684Y388550D01*
X178923Y387558D01*
X178444Y386402D01*
X178413Y386162D01*
X182072D01*
Y389822D01*
D02*
G37*
G36*
X386124Y389075D02*
Y385668D01*
X389532D01*
X389509Y385843D01*
X389055Y386937D01*
X388334Y387877D01*
X387394Y388599D01*
X386299Y389052D01*
X386124Y389075D01*
D02*
G37*
G36*
X384124Y389075D02*
X383950Y389052D01*
X382855Y388599D01*
X381915Y387877D01*
X381194Y386937D01*
X380740Y385843D01*
X380717Y385668D01*
X384124D01*
Y389075D01*
D02*
G37*
G36*
X332365Y384585D02*
X331184D01*
Y381534D01*
X332365D01*
Y384585D01*
D02*
G37*
G36*
X277246D02*
X276065D01*
Y381534D01*
X277246D01*
Y384585D01*
D02*
G37*
G36*
X329184D02*
X328002D01*
Y381534D01*
X329184D01*
Y384585D01*
D02*
G37*
G36*
X274065D02*
X272884D01*
Y381534D01*
X274065D01*
Y384585D01*
D02*
G37*
G36*
X214424Y384469D02*
Y380810D01*
X218083D01*
X218052Y381050D01*
X217573Y382205D01*
X216812Y383198D01*
X215820Y383959D01*
X214664Y384438D01*
X214424Y384469D01*
D02*
G37*
G36*
X153719D02*
Y380810D01*
X157378D01*
X157347Y381050D01*
X156868Y382205D01*
X156107Y383198D01*
X155114Y383959D01*
X153959Y384438D01*
X153719Y384469D01*
D02*
G37*
G36*
X182072Y384162D02*
X178413D01*
X178444Y383922D01*
X178923Y382767D01*
X179684Y381775D01*
X180676Y381013D01*
X181832Y380535D01*
X182072Y380503D01*
Y384162D01*
D02*
G37*
G36*
X187731D02*
X184072D01*
Y380503D01*
X184312Y380535D01*
X185467Y381013D01*
X186460Y381775D01*
X187221Y382767D01*
X187700Y383922D01*
X187731Y384162D01*
D02*
G37*
G36*
X384124Y383668D02*
X380717D01*
X380740Y383493D01*
X381194Y382399D01*
X381915Y381459D01*
X382855Y380737D01*
X383950Y380284D01*
X384124Y380261D01*
Y383668D01*
D02*
G37*
G36*
X389532D02*
X386124D01*
Y380261D01*
X386299Y380284D01*
X387394Y380737D01*
X388334Y381459D01*
X389055Y382399D01*
X389509Y383493D01*
X389532Y383668D01*
D02*
G37*
G36*
X352365Y384585D02*
X348002D01*
Y376483D01*
X352365D01*
Y384585D01*
D02*
G37*
G36*
X332365Y379534D02*
X331184D01*
Y376483D01*
X332365D01*
Y379534D01*
D02*
G37*
G36*
X329184D02*
X328002D01*
Y376483D01*
X329184D01*
Y379534D01*
D02*
G37*
G36*
X277246D02*
X276065D01*
Y376483D01*
X277246D01*
Y379534D01*
D02*
G37*
G36*
X274065D02*
X272884D01*
Y376483D01*
X274065D01*
Y379534D01*
D02*
G37*
G36*
X342365Y384585D02*
X338002D01*
Y376483D01*
X338002Y376483D01*
X338002D01*
X337973Y376354D01*
X337448Y376300D01*
X337365Y376483D01*
Y384585D01*
X333002D01*
Y376483D01*
X333144D01*
Y375552D01*
X333299Y374771D01*
X333742Y374110D01*
X342172Y365679D01*
Y327987D01*
X333806Y319620D01*
X329433D01*
Y321582D01*
X325183D01*
X320933D01*
Y319620D01*
X287024D01*
X286975Y320121D01*
X287362Y320198D01*
X288024Y320640D01*
X293535Y326151D01*
X293977Y326813D01*
X294133Y327593D01*
X294133Y327593D01*
Y367766D01*
X294133Y367766D01*
X293977Y368546D01*
X293535Y369208D01*
X293535Y369208D01*
X287105Y375639D01*
Y376483D01*
X287246D01*
Y384585D01*
X282884D01*
Y376483D01*
X282884Y376483D01*
X282884D01*
X282855Y376354D01*
X282330Y376300D01*
X282246Y376483D01*
Y384585D01*
X277884D01*
Y376483D01*
X277884D01*
X277870Y376217D01*
X277588Y375825D01*
X272597D01*
X272383Y376040D01*
X272247Y376483D01*
X272247Y376483D01*
X272247D01*
X272247Y376483D01*
Y384585D01*
X267884D01*
Y376483D01*
X268026D01*
Y375473D01*
X268181Y374693D01*
X268623Y374031D01*
X270310Y372344D01*
X270972Y371902D01*
X271752Y371747D01*
X276743D01*
X284054Y364436D01*
Y330923D01*
X283252Y330121D01*
X274252D01*
X271349Y333023D01*
X270688Y333465D01*
X269907Y333621D01*
X254280D01*
X253500Y333465D01*
X252838Y333023D01*
X249936Y330121D01*
X226379D01*
X225599Y329965D01*
X224938Y329523D01*
X217941Y322527D01*
X217499Y321865D01*
X217344Y321085D01*
Y290321D01*
X204538Y277515D01*
X127119Y277515D01*
X123464D01*
X119158Y281821D01*
Y289437D01*
X119172Y289442D01*
X120023Y290095D01*
X120675Y290945D01*
X121085Y291936D01*
X121225Y292998D01*
Y296699D01*
X121085Y297762D01*
X120675Y298752D01*
X120023Y299603D01*
X119172Y300255D01*
X118182Y300665D01*
X117119Y300805D01*
X116057Y300665D01*
X115066Y300255D01*
X114216Y299603D01*
X113563Y298752D01*
X113153Y297762D01*
X113013Y296699D01*
Y292998D01*
X113153Y291936D01*
X113563Y290945D01*
X114216Y290095D01*
X115066Y289442D01*
X115080Y289437D01*
Y282310D01*
X114618Y282119D01*
X109159Y287578D01*
Y289437D01*
X109172Y289442D01*
X110023Y290095D01*
X110675Y290945D01*
X111085Y291936D01*
X111225Y292998D01*
Y296699D01*
X111085Y297762D01*
X110675Y298752D01*
X110023Y299603D01*
X109172Y300255D01*
X108182Y300665D01*
X107119Y300805D01*
X106057Y300665D01*
X105066Y300255D01*
X104216Y299603D01*
X103563Y298752D01*
X103153Y297762D01*
X103013Y296699D01*
Y292998D01*
X103153Y291936D01*
X103563Y290945D01*
X104216Y290095D01*
X105066Y289442D01*
X105080Y289437D01*
Y287810D01*
X104580Y287439D01*
X104119Y287530D01*
X101213D01*
X99513Y289230D01*
X99546Y289729D01*
X100023Y290095D01*
X100675Y290945D01*
X101085Y291936D01*
X101225Y292998D01*
Y296699D01*
X101085Y297762D01*
X100675Y298752D01*
X100023Y299603D01*
X99172Y300255D01*
X98182Y300665D01*
X97119Y300805D01*
X96057Y300665D01*
X95066Y300255D01*
X94216Y299603D01*
X93563Y298752D01*
X93153Y297762D01*
X93013Y296699D01*
Y292998D01*
X93153Y291936D01*
X93563Y290945D01*
X94216Y290095D01*
X95066Y289442D01*
X95080Y289437D01*
Y288740D01*
X95235Y287960D01*
X95677Y287298D01*
X98926Y284049D01*
X98926Y284049D01*
X99588Y283607D01*
X100368Y283452D01*
X103275D01*
X118692Y268034D01*
X119354Y267592D01*
X120134Y267437D01*
X127119D01*
X207868Y267437D01*
X208648Y267592D01*
X209310Y268034D01*
X226825Y285549D01*
X226825Y285549D01*
X227267Y286211D01*
X227422Y286991D01*
Y317755D01*
X229709Y320042D01*
X250685D01*
Y314581D01*
X250840Y313801D01*
X251282Y313139D01*
X252955Y311466D01*
X252955Y311466D01*
X253617Y311024D01*
X254397Y310869D01*
X267777D01*
X268557Y311024D01*
X269218Y311466D01*
X270294Y312542D01*
X320933D01*
Y310581D01*
X325183D01*
X329433D01*
Y312542D01*
X335893D01*
X336673Y312697D01*
X337335Y313139D01*
X348654Y324458D01*
X349096Y325119D01*
X349251Y325900D01*
Y367766D01*
X349251Y367766D01*
X349096Y368546D01*
X348654Y369208D01*
X348654Y369208D01*
X342223Y375639D01*
Y376483D01*
X342365D01*
Y384585D01*
D02*
G37*
G36*
X218083Y378810D02*
X214424D01*
Y375150D01*
X214664Y375182D01*
X215820Y375661D01*
X216812Y376422D01*
X217573Y377414D01*
X218052Y378570D01*
X218083Y378810D01*
D02*
G37*
G36*
X157378D02*
X153719D01*
Y375150D01*
X153959Y375182D01*
X155114Y375661D01*
X156107Y376422D01*
X156868Y377414D01*
X157347Y378570D01*
X157378Y378810D01*
D02*
G37*
G36*
X408852Y366313D02*
X406883D01*
Y363563D01*
X408852D01*
Y366313D01*
D02*
G37*
G36*
X404883D02*
X402915D01*
Y363563D01*
X404883D01*
Y366313D01*
D02*
G37*
G36*
X326184Y364788D02*
Y359881D01*
X329722D01*
Y360381D01*
X329568Y361556D01*
X329114Y362650D01*
X328393Y363590D01*
X327453Y364312D01*
X326358Y364765D01*
X326184Y364788D01*
D02*
G37*
G36*
X324184D02*
X324009Y364765D01*
X322914Y364312D01*
X321974Y363590D01*
X321253Y362650D01*
X320799Y361556D01*
X320645Y360381D01*
Y359881D01*
X324184D01*
Y364788D01*
D02*
G37*
G36*
X271065D02*
Y359881D01*
X274604D01*
Y360381D01*
X274449Y361556D01*
X273996Y362650D01*
X273275Y363590D01*
X272335Y364312D01*
X271240Y364765D01*
X271065Y364788D01*
D02*
G37*
G36*
X269065D02*
X268891Y364765D01*
X267796Y364312D01*
X266856Y363590D01*
X266135Y362650D01*
X265681Y361556D01*
X265527Y360381D01*
Y359881D01*
X269065D01*
Y364788D01*
D02*
G37*
G36*
X408852Y361563D02*
X405883D01*
X402915D01*
Y358813D01*
Y356476D01*
X405883D01*
X408852D01*
Y358813D01*
Y361563D01*
D02*
G37*
G36*
X214424Y359469D02*
Y355810D01*
X218083D01*
X218052Y356050D01*
X217573Y357205D01*
X216812Y358198D01*
X215820Y358959D01*
X214664Y359438D01*
X214424Y359469D01*
D02*
G37*
G36*
X153719D02*
Y355810D01*
X157378D01*
X157347Y356050D01*
X156868Y357205D01*
X156107Y358198D01*
X155114Y358959D01*
X153959Y359438D01*
X153719Y359469D01*
D02*
G37*
G36*
X212424D02*
X212184Y359438D01*
X211029Y358959D01*
X210036Y358198D01*
X209275Y357205D01*
X208796Y356050D01*
X208765Y355810D01*
X212424D01*
Y359469D01*
D02*
G37*
G36*
X151719D02*
X151479Y359438D01*
X150323Y358959D01*
X149331Y358198D01*
X148570Y357205D01*
X148091Y356050D01*
X148060Y355810D01*
X151719D01*
Y359469D01*
D02*
G37*
G36*
X329722Y357881D02*
X326184D01*
Y352974D01*
X326358Y352997D01*
X327453Y353450D01*
X328393Y354171D01*
X329114Y355111D01*
X329568Y356206D01*
X329722Y357381D01*
Y357881D01*
D02*
G37*
G36*
X324184D02*
X320645D01*
Y357381D01*
X320799Y356206D01*
X321253Y355111D01*
X321974Y354171D01*
X322914Y353450D01*
X324009Y352997D01*
X324184Y352974D01*
Y357881D01*
D02*
G37*
G36*
X274604D02*
X271065D01*
Y352974D01*
X271240Y352997D01*
X272335Y353450D01*
X273275Y354171D01*
X273996Y355111D01*
X274449Y356206D01*
X274604Y357381D01*
Y357881D01*
D02*
G37*
G36*
X269065D02*
X265527D01*
Y357381D01*
X265681Y356206D01*
X266135Y355111D01*
X266856Y354171D01*
X267796Y353450D01*
X268891Y352997D01*
X269065Y352974D01*
Y357881D01*
D02*
G37*
G36*
X184072Y354117D02*
Y350457D01*
X187731D01*
X187700Y350697D01*
X187221Y351853D01*
X186460Y352845D01*
X185467Y353607D01*
X184312Y354085D01*
X184072Y354117D01*
D02*
G37*
G36*
X421556Y367390D02*
X416147D01*
X410738D01*
X410769Y367150D01*
X411248Y365994D01*
X412009Y365002D01*
X413001Y364241D01*
X414157Y363762D01*
X415069Y363642D01*
Y363137D01*
X414157Y363017D01*
X413001Y362539D01*
X412009Y361777D01*
X411248Y360785D01*
X410769Y359630D01*
X410606Y358390D01*
X410769Y357150D01*
X411248Y355994D01*
X412009Y355002D01*
X413001Y354240D01*
X414157Y353762D01*
X415086Y353640D01*
X415053Y353140D01*
X410647D01*
Y350429D01*
X408852D01*
Y351726D01*
Y354476D01*
X405883D01*
X402915D01*
Y351726D01*
Y344640D01*
X403844D01*
Y338621D01*
X381775Y316552D01*
X381333Y315890D01*
X381178Y315110D01*
Y283594D01*
X373372Y275789D01*
X368717D01*
X367936Y275634D01*
X367275Y275192D01*
X347372Y255289D01*
X251474Y255289D01*
X250694Y255134D01*
X250032Y254692D01*
X226130Y230789D01*
X109185D01*
X108404Y230634D01*
X107743Y230192D01*
X96677Y219127D01*
X96235Y218465D01*
X96080Y217685D01*
Y215143D01*
X92726Y211789D01*
X89474D01*
X88694Y211634D01*
X88032Y211192D01*
X85630Y208789D01*
X70717D01*
X69937Y208634D01*
X69275Y208192D01*
X65677Y204594D01*
X65235Y203933D01*
X65080Y203152D01*
Y200261D01*
X65066Y200255D01*
X64216Y199603D01*
X63563Y198752D01*
X63153Y197762D01*
X63013Y196699D01*
Y192998D01*
X63153Y191936D01*
X63563Y190945D01*
X64216Y190095D01*
X65066Y189443D01*
X66057Y189032D01*
X67119Y188892D01*
X68182Y189032D01*
X69172Y189443D01*
X70023Y190095D01*
X70675Y190945D01*
X71085Y191936D01*
X71225Y192998D01*
Y196699D01*
X71085Y197762D01*
X70675Y198752D01*
X70023Y199603D01*
X69172Y200255D01*
X69159Y200261D01*
Y202308D01*
X71561Y204711D01*
X85154D01*
X85421Y204211D01*
X85235Y203933D01*
X85080Y203152D01*
Y200261D01*
X85066Y200255D01*
X84216Y199603D01*
X83563Y198752D01*
X83153Y197762D01*
X83013Y196699D01*
Y192998D01*
X83153Y191936D01*
X83563Y190945D01*
X84216Y190095D01*
X85066Y189443D01*
X86057Y189032D01*
X87119Y188892D01*
X88182Y189032D01*
X89172Y189443D01*
X90023Y190095D01*
X90675Y190945D01*
X91085Y191936D01*
X91225Y192998D01*
Y196699D01*
X91085Y197762D01*
X90675Y198752D01*
X90023Y199603D01*
X89172Y200255D01*
X89158Y200261D01*
Y202308D01*
X91562Y204711D01*
X94813D01*
X95080Y204492D01*
Y200261D01*
X95066Y200255D01*
X94216Y199603D01*
X93563Y198752D01*
X93153Y197762D01*
X93013Y196699D01*
Y192998D01*
X93153Y191936D01*
X93563Y190945D01*
X94216Y190095D01*
X95066Y189443D01*
X96057Y189032D01*
X97119Y188892D01*
X98182Y189032D01*
X99172Y189443D01*
X100023Y190095D01*
X100675Y190945D01*
X101085Y191936D01*
X101225Y192998D01*
Y196699D01*
X101085Y197762D01*
X100675Y198752D01*
X100023Y199603D01*
X99172Y200255D01*
X99159Y200261D01*
Y203968D01*
X104618Y209428D01*
X105080Y209237D01*
Y200261D01*
X105066Y200255D01*
X104216Y199603D01*
X103563Y198752D01*
X103153Y197762D01*
X103013Y196699D01*
Y192998D01*
X103153Y191936D01*
X103563Y190945D01*
X104216Y190095D01*
X105066Y189443D01*
X106057Y189032D01*
X107119Y188892D01*
X108182Y189032D01*
X109172Y189443D01*
X110023Y190095D01*
X110675Y190945D01*
X111085Y191936D01*
X111225Y192998D01*
Y196699D01*
X111085Y197762D01*
X110675Y198752D01*
X110023Y199603D01*
X109172Y200255D01*
X109159Y200261D01*
Y213112D01*
X113757Y217711D01*
X135797D01*
X136004Y217211D01*
X133887Y215093D01*
X129279D01*
X128498Y214938D01*
X127837Y214496D01*
X125434Y212093D01*
X120521D01*
X119741Y211938D01*
X119079Y211496D01*
X115677Y208094D01*
X115235Y207433D01*
X115080Y206652D01*
Y200261D01*
X115066Y200255D01*
X114216Y199603D01*
X113563Y198752D01*
X113153Y197762D01*
X113013Y196699D01*
Y192998D01*
X113153Y191936D01*
X113563Y190945D01*
X114216Y190095D01*
X115066Y189443D01*
X116057Y189032D01*
X117119Y188892D01*
X118182Y189032D01*
X119172Y189443D01*
X120023Y190095D01*
X120675Y190945D01*
X121085Y191936D01*
X121225Y192998D01*
Y196699D01*
X121085Y197762D01*
X120675Y198752D01*
X120023Y199603D01*
X119172Y200255D01*
X119158Y200261D01*
Y205808D01*
X121366Y208015D01*
X125094D01*
X125330Y207574D01*
X125235Y207433D01*
X125080Y206652D01*
Y200261D01*
X125066Y200255D01*
X124216Y199603D01*
X123563Y198752D01*
X123153Y197762D01*
X123013Y196699D01*
Y192998D01*
X123153Y191936D01*
X123563Y190945D01*
X124216Y190095D01*
X125066Y189443D01*
X126057Y189032D01*
X127119Y188892D01*
X128182Y189032D01*
X129172Y189443D01*
X130023Y190095D01*
X130675Y190945D01*
X131085Y191936D01*
X131225Y192998D01*
Y196699D01*
X131085Y197762D01*
X130675Y198752D01*
X130023Y199603D01*
X129172Y200255D01*
X129158Y200261D01*
Y205808D01*
X131366Y208015D01*
X134865D01*
X135191Y207515D01*
X135080Y206957D01*
Y200261D01*
X135066Y200255D01*
X134216Y199603D01*
X133563Y198752D01*
X133153Y197762D01*
X133013Y196699D01*
Y192998D01*
X133153Y191936D01*
X133563Y190945D01*
X134216Y190095D01*
X135066Y189443D01*
X136057Y189032D01*
X137119Y188892D01*
X138182Y189032D01*
X139172Y189443D01*
X140023Y190095D01*
X140675Y190945D01*
X141085Y191936D01*
X141225Y192998D01*
Y196699D01*
X141085Y197762D01*
X140675Y198752D01*
X140023Y199603D01*
X139172Y200255D01*
X139158Y200261D01*
Y206112D01*
X141061Y208015D01*
X227568D01*
X247025Y188558D01*
X247686Y188116D01*
X248467Y187961D01*
X281379D01*
X289928Y179412D01*
Y152545D01*
X288998D01*
Y145045D01*
X294935D01*
Y152545D01*
X294006D01*
Y162181D01*
X294468Y162372D01*
X299631Y157209D01*
X300292Y156767D01*
X301073Y156612D01*
X301073Y156612D01*
X315471D01*
X317085Y154998D01*
Y152545D01*
X316156D01*
Y145045D01*
X322093D01*
Y152545D01*
X321164D01*
Y155842D01*
X321087Y156226D01*
X321405Y156612D01*
X342628D01*
X344243Y154998D01*
Y152545D01*
X343313D01*
Y145045D01*
X349250D01*
Y152545D01*
X348321D01*
Y155842D01*
X348166Y156623D01*
X347724Y157284D01*
X344915Y160093D01*
X344253Y160535D01*
X343473Y160690D01*
X321403D01*
X319000Y163093D01*
X318338Y163535D01*
X317558Y163690D01*
X303160D01*
X300006Y166844D01*
Y182742D01*
X299851Y183523D01*
X299409Y184184D01*
X286151Y197442D01*
X285490Y197884D01*
X284709Y198039D01*
X251797D01*
X232340Y217496D01*
X232340Y217496D01*
X232084Y217667D01*
Y218268D01*
X232144Y218308D01*
X256047Y242211D01*
X351945Y242211D01*
X352725Y242366D01*
X353387Y242808D01*
X373289Y262711D01*
X397630D01*
X399344Y260996D01*
Y244834D01*
X397883D01*
Y241084D01*
Y237334D01*
X399344D01*
Y202299D01*
X397883D01*
Y198549D01*
Y194799D01*
X399852D01*
Y198024D01*
X400352Y198231D01*
X401476Y197107D01*
X402138Y196665D01*
X402915Y196510D01*
Y194799D01*
X408852D01*
Y196510D01*
X410647D01*
Y193799D01*
X421647D01*
Y203299D01*
X417241D01*
X417208Y203799D01*
X418137Y203921D01*
X419292Y204400D01*
X420285Y205161D01*
X421046Y206153D01*
X421525Y207309D01*
X421556Y207549D01*
X416147D01*
X410738D01*
X410769Y207309D01*
X411248Y206153D01*
X412009Y205161D01*
X413001Y204400D01*
X414157Y203921D01*
X415086Y203799D01*
X415053Y203299D01*
X410647D01*
Y200588D01*
X408852D01*
Y202299D01*
X403422D01*
Y237334D01*
X408852D01*
Y239045D01*
X410647D01*
Y236334D01*
X421647D01*
Y245834D01*
X417241D01*
X417208Y246334D01*
X418137Y246456D01*
X419292Y246935D01*
X420285Y247696D01*
X421046Y248689D01*
X421525Y249844D01*
X421556Y250084D01*
X416147D01*
X410738D01*
X410769Y249844D01*
X411248Y248689D01*
X412009Y247696D01*
X413001Y246935D01*
X414157Y246456D01*
X415086Y246334D01*
X415053Y245834D01*
X410647D01*
Y243123D01*
X408852D01*
Y244834D01*
X407922D01*
Y261583D01*
X407767Y262364D01*
X407325Y263025D01*
X401159Y269192D01*
X401376Y269648D01*
X407325Y275597D01*
X407767Y276258D01*
X407922Y277039D01*
Y281504D01*
X408852D01*
Y283215D01*
X410647D01*
Y280504D01*
X421647D01*
Y290004D01*
X417241D01*
X417208Y290504D01*
X418137Y290627D01*
X419292Y291105D01*
X420285Y291867D01*
X421046Y292859D01*
X421525Y294014D01*
X421688Y295254D01*
X421525Y296494D01*
X421046Y297650D01*
X420285Y298642D01*
X419292Y299404D01*
X418137Y299882D01*
X417225Y300002D01*
Y300507D01*
X418137Y300627D01*
X419292Y301105D01*
X420285Y301867D01*
X421046Y302859D01*
X421525Y304014D01*
X421556Y304254D01*
X416147D01*
X410738D01*
X410769Y304014D01*
X411248Y302859D01*
X412009Y301867D01*
X413001Y301105D01*
X414157Y300627D01*
X415069Y300507D01*
Y300002D01*
X414157Y299882D01*
X413001Y299404D01*
X412009Y298642D01*
X411248Y297650D01*
X410769Y296494D01*
X410606Y295254D01*
X410769Y294014D01*
X411248Y292859D01*
X412009Y291867D01*
X413001Y291105D01*
X414157Y290627D01*
X415086Y290504D01*
X415053Y290004D01*
X410647D01*
Y287294D01*
X408852D01*
Y288591D01*
X408852D01*
Y291341D01*
X405884D01*
X402915D01*
Y289004D01*
X402915D01*
Y281504D01*
X403844D01*
Y277883D01*
X398750Y272789D01*
X376793D01*
X376602Y273251D01*
X384659Y281308D01*
X385101Y281969D01*
X385256Y282750D01*
Y314265D01*
X407325Y336334D01*
X407767Y336996D01*
X407922Y337776D01*
Y344640D01*
X408852D01*
Y346350D01*
X410647D01*
Y343640D01*
X421647D01*
Y353140D01*
X417241D01*
X417208Y353640D01*
X418137Y353762D01*
X419292Y354240D01*
X420285Y355002D01*
X421046Y355994D01*
X421525Y357150D01*
X421688Y358390D01*
X421525Y359630D01*
X421046Y360785D01*
X420285Y361777D01*
X419292Y362539D01*
X418137Y363017D01*
X417225Y363137D01*
Y363642D01*
X418137Y363762D01*
X419292Y364241D01*
X420285Y365002D01*
X421046Y365994D01*
X421525Y367150D01*
X421556Y367390D01*
D02*
G37*
G36*
X218083Y353810D02*
X214424D01*
Y350150D01*
X214664Y350182D01*
X215820Y350661D01*
X216812Y351422D01*
X217573Y352414D01*
X218052Y353570D01*
X218083Y353810D01*
D02*
G37*
G36*
X157378D02*
X153719D01*
Y350150D01*
X153959Y350182D01*
X155114Y350661D01*
X156107Y351422D01*
X156868Y352414D01*
X157347Y353570D01*
X157378Y353810D01*
D02*
G37*
G36*
X212424D02*
X208765D01*
X208796Y353570D01*
X209275Y352414D01*
X210036Y351422D01*
X211029Y350661D01*
X212184Y350182D01*
X212424Y350150D01*
Y353810D01*
D02*
G37*
G36*
X151719D02*
X148060D01*
X148091Y353570D01*
X148570Y352414D01*
X149331Y351422D01*
X150323Y350661D01*
X151479Y350182D01*
X151719Y350150D01*
Y353810D01*
D02*
G37*
G36*
X187731Y348457D02*
X184072D01*
Y344798D01*
X184312Y344830D01*
X185467Y345308D01*
X186460Y346070D01*
X187221Y347062D01*
X187700Y348217D01*
X187731Y348457D01*
D02*
G37*
G36*
X399852Y347390D02*
X397883D01*
Y344640D01*
X399852D01*
Y347390D01*
D02*
G37*
G36*
X395883D02*
X393915D01*
Y344640D01*
X395883D01*
Y347390D01*
D02*
G37*
G36*
X331184Y347540D02*
Y344133D01*
X334591D01*
X334568Y344307D01*
X334114Y345402D01*
X333393Y346342D01*
X332453Y347063D01*
X331358Y347517D01*
X331184Y347540D01*
D02*
G37*
G36*
X276065D02*
Y344133D01*
X279472D01*
X279450Y344307D01*
X278996Y345402D01*
X278275Y346342D01*
X277335Y347063D01*
X276240Y347517D01*
X276065Y347540D01*
D02*
G37*
G36*
X329184Y347540D02*
X329009Y347517D01*
X327914Y347063D01*
X326974Y346342D01*
X326253Y345402D01*
X325799Y344307D01*
X325776Y344133D01*
X329184D01*
Y347540D01*
D02*
G37*
G36*
X274065D02*
X273891Y347517D01*
X272796Y347063D01*
X271856Y346342D01*
X271135Y345402D01*
X270681Y344307D01*
X270658Y344133D01*
X274065D01*
Y347540D01*
D02*
G37*
G36*
X26262Y371572D02*
X25384Y371457D01*
X24566Y371118D01*
X23864Y370579D01*
X23325Y369877D01*
X22986Y369059D01*
X22871Y368181D01*
Y365819D01*
X22986Y364941D01*
X23325Y364123D01*
X23488Y363911D01*
Y350205D01*
X23583Y349487D01*
X23860Y348818D01*
X24300Y348244D01*
X29755Y342789D01*
X30330Y342348D01*
X30999Y342071D01*
X31717Y341976D01*
X70218D01*
X72875Y339319D01*
X72668Y338819D01*
X69185D01*
Y339795D01*
X63248D01*
Y332295D01*
X63443D01*
Y328103D01*
X63314Y328004D01*
X62661Y327153D01*
X62251Y326163D01*
X62111Y325100D01*
Y321399D01*
X62251Y320337D01*
X62661Y319346D01*
X63314Y318496D01*
X64164Y317844D01*
X65154Y317433D01*
X66217Y317293D01*
X67280Y317433D01*
X68270Y317844D01*
X69120Y318496D01*
X69773Y319346D01*
X70183Y320337D01*
X70323Y321399D01*
Y325100D01*
X70183Y326163D01*
X69773Y327153D01*
X69120Y328004D01*
X68991Y328103D01*
Y332295D01*
X69185D01*
Y333271D01*
X73303D01*
X73364Y333192D01*
X74200Y332551D01*
X75173Y332148D01*
X76217Y332011D01*
X77261Y332148D01*
X78234Y332551D01*
X79070Y333192D01*
X79711Y334028D01*
X80114Y335001D01*
X80251Y336045D01*
X80114Y337089D01*
X79711Y338062D01*
X79070Y338898D01*
X78991Y338959D01*
Y339900D01*
X78896Y340618D01*
X78619Y341287D01*
X78178Y341861D01*
X73328Y346711D01*
X72754Y347152D01*
X72085Y347429D01*
X71367Y347523D01*
X32866D01*
X29035Y351354D01*
Y363911D01*
X29199Y364123D01*
X29537Y364941D01*
X29653Y365819D01*
Y368181D01*
X29537Y369059D01*
X29199Y369877D01*
X28660Y370579D01*
X27957Y371118D01*
X27139Y371457D01*
X26262Y371572D01*
D02*
G37*
G36*
X334591Y342133D02*
X331184D01*
Y338725D01*
X331358Y338749D01*
X332453Y339202D01*
X333393Y339923D01*
X334114Y340863D01*
X334568Y341958D01*
X334591Y342133D01*
D02*
G37*
G36*
X279472D02*
X276065D01*
Y338725D01*
X276240Y338749D01*
X277335Y339202D01*
X278275Y339923D01*
X278996Y340863D01*
X279450Y341958D01*
X279472Y342133D01*
D02*
G37*
G36*
X329184D02*
X325776D01*
X325799Y341958D01*
X326253Y340863D01*
X326974Y339923D01*
X327914Y339202D01*
X329009Y338749D01*
X329184Y338725D01*
Y342133D01*
D02*
G37*
G36*
X274065D02*
X270658D01*
X270681Y341958D01*
X271135Y340863D01*
X271856Y339923D01*
X272796Y339202D01*
X273891Y338749D01*
X274065Y338725D01*
Y342133D01*
D02*
G37*
G36*
X97217Y339948D02*
Y337045D01*
X100120D01*
X100114Y337089D01*
X99711Y338062D01*
X99070Y338898D01*
X98234Y339539D01*
X97261Y339942D01*
X97217Y339948D01*
D02*
G37*
G36*
X95217D02*
X95173Y339942D01*
X94200Y339539D01*
X93364Y338898D01*
X92723Y338062D01*
X92320Y337089D01*
X92314Y337045D01*
X95217D01*
Y339948D01*
D02*
G37*
G36*
X60185Y339795D02*
X58217D01*
Y337045D01*
X60185D01*
Y339795D01*
D02*
G37*
G36*
X56217D02*
X54248D01*
Y337045D01*
X56217D01*
Y339795D01*
D02*
G37*
G36*
X60185Y335045D02*
X58217D01*
Y332295D01*
X60185D01*
Y335045D01*
D02*
G37*
G36*
X56217D02*
X54248D01*
Y332295D01*
X56217D01*
Y335045D01*
D02*
G37*
G36*
X100120D02*
X97217D01*
Y332142D01*
X97261Y332148D01*
X98234Y332551D01*
X99070Y333192D01*
X99711Y334028D01*
X100114Y335001D01*
X100120Y335045D01*
D02*
G37*
G36*
X95217D02*
X92314D01*
X92320Y335001D01*
X92723Y334028D01*
X93364Y333192D01*
X94200Y332551D01*
X95173Y332148D01*
X95217Y332142D01*
Y335045D01*
D02*
G37*
G36*
X184072Y329117D02*
Y325457D01*
X187731D01*
X187700Y325697D01*
X187221Y326853D01*
X186460Y327845D01*
X185467Y328607D01*
X184312Y329085D01*
X184072Y329117D01*
D02*
G37*
G36*
X182072D02*
X181832Y329085D01*
X180676Y328607D01*
X179684Y327845D01*
X178923Y326853D01*
X178444Y325697D01*
X178413Y325457D01*
X182072D01*
Y329117D01*
D02*
G37*
G36*
X107217Y329075D02*
Y324250D01*
X110323D01*
Y325100D01*
X110183Y326163D01*
X109773Y327153D01*
X109120Y328004D01*
X108270Y328656D01*
X107280Y329066D01*
X107217Y329075D01*
D02*
G37*
G36*
X105217D02*
X105154Y329066D01*
X104164Y328656D01*
X103314Y328004D01*
X102661Y327153D01*
X102251Y326163D01*
X102111Y325100D01*
Y324250D01*
X105217D01*
Y329075D01*
D02*
G37*
G36*
X329433Y326081D02*
X326183D01*
Y323582D01*
X329433D01*
Y326081D01*
D02*
G37*
G36*
X324183D02*
X320933D01*
Y323582D01*
X324183D01*
Y326081D01*
D02*
G37*
G36*
X187731Y323457D02*
X184072D01*
Y319798D01*
X184312Y319830D01*
X185467Y320308D01*
X186460Y321070D01*
X187221Y322062D01*
X187700Y323217D01*
X187731Y323457D01*
D02*
G37*
G36*
X182072D02*
X178413D01*
X178444Y323217D01*
X178923Y322062D01*
X179684Y321070D01*
X180676Y320308D01*
X181832Y319830D01*
X182072Y319798D01*
Y323457D01*
D02*
G37*
G36*
X110323Y322250D02*
X107217D01*
Y317425D01*
X107280Y317433D01*
X108270Y317844D01*
X109120Y318496D01*
X109773Y319346D01*
X110183Y320337D01*
X110323Y321399D01*
Y322250D01*
D02*
G37*
G36*
X105217D02*
X102111D01*
Y321399D01*
X102251Y320337D01*
X102661Y319346D01*
X103314Y318496D01*
X104164Y317844D01*
X105154Y317433D01*
X105217Y317425D01*
Y322250D01*
D02*
G37*
G36*
X60288Y329171D02*
X52146D01*
Y317329D01*
X60288D01*
Y329171D01*
D02*
G37*
G36*
X96217Y329206D02*
X95154Y329066D01*
X94164Y328656D01*
X93313Y328004D01*
X92661Y327153D01*
X92251Y326163D01*
X92111Y325100D01*
Y321399D01*
X92251Y320337D01*
X92661Y319346D01*
X93313Y318496D01*
X94164Y317844D01*
X94178Y317838D01*
Y317157D01*
X88756D01*
X88748Y317157D01*
X88256Y317176D01*
Y317838D01*
X88270Y317844D01*
X89120Y318496D01*
X89773Y319346D01*
X90183Y320337D01*
X90323Y321399D01*
Y325100D01*
X90183Y326163D01*
X89773Y327153D01*
X89120Y328004D01*
X88270Y328656D01*
X87280Y329066D01*
X86217Y329206D01*
X85154Y329066D01*
X84164Y328656D01*
X83314Y328004D01*
X82661Y327153D01*
X82251Y326163D01*
X82111Y325100D01*
Y321399D01*
X82251Y320337D01*
X82661Y319346D01*
X83314Y318496D01*
X84164Y317844D01*
X84178Y317838D01*
Y314094D01*
X75677Y305594D01*
X75235Y304933D01*
X75080Y304152D01*
Y300261D01*
X75066Y300255D01*
X74216Y299603D01*
X73563Y298752D01*
X73153Y297762D01*
X73013Y296699D01*
Y292998D01*
X73153Y291936D01*
X73563Y290945D01*
X74216Y290095D01*
X75066Y289442D01*
X76057Y289032D01*
X77119Y288892D01*
X78182Y289032D01*
X79172Y289442D01*
X80023Y290095D01*
X80675Y290945D01*
X81085Y291936D01*
X81225Y292998D01*
Y296699D01*
X81085Y297762D01*
X80675Y298752D01*
X80023Y299603D01*
X79172Y300255D01*
X79159Y300261D01*
Y303308D01*
X87659Y311808D01*
X88101Y312469D01*
X88256Y313250D01*
X88256Y313250D01*
X88748Y313231D01*
Y309657D01*
X88749D01*
Y308238D01*
X88582Y308205D01*
X87920Y307763D01*
X85677Y305520D01*
X85235Y304858D01*
X85080Y304078D01*
Y300261D01*
X85066Y300255D01*
X84216Y299603D01*
X83563Y298752D01*
X83153Y297762D01*
X83013Y296699D01*
Y292998D01*
X83153Y291936D01*
X83563Y290945D01*
X84216Y290095D01*
X85066Y289442D01*
X86057Y289032D01*
X87119Y288892D01*
X88182Y289032D01*
X89172Y289442D01*
X90023Y290095D01*
X90675Y290945D01*
X91085Y291936D01*
X91225Y292998D01*
Y296699D01*
X91085Y297762D01*
X90675Y298752D01*
X90023Y299603D01*
X89172Y300255D01*
X89158Y300261D01*
Y302571D01*
X94686D01*
Y310071D01*
X94685D01*
Y312690D01*
X95185Y312898D01*
X96118Y311965D01*
X96779Y311523D01*
X97559Y311368D01*
X97748D01*
Y309657D01*
X97749D01*
Y307321D01*
X100717D01*
X103685D01*
Y310071D01*
X103685D01*
Y317157D01*
X98256D01*
Y317838D01*
X98270Y317844D01*
X99120Y318496D01*
X99773Y319346D01*
X100183Y320337D01*
X100323Y321399D01*
Y325100D01*
X100183Y326163D01*
X99773Y327153D01*
X99120Y328004D01*
X98270Y328656D01*
X97280Y329066D01*
X96217Y329206D01*
D02*
G37*
G36*
X30403Y309426D02*
X28434D01*
Y306676D01*
X30403D01*
Y309426D01*
D02*
G37*
G36*
X26434D02*
X24466D01*
Y306676D01*
X26434D01*
Y309426D01*
D02*
G37*
G36*
X329433Y308581D02*
X326183D01*
Y306082D01*
X329433D01*
Y308581D01*
D02*
G37*
G36*
X324183D02*
X320933D01*
Y306082D01*
X324183D01*
Y308581D01*
D02*
G37*
G36*
X103685Y305321D02*
X101717D01*
Y302571D01*
X103685D01*
Y305321D01*
D02*
G37*
G36*
X99717D02*
X97749D01*
Y302571D01*
X99717D01*
Y305321D01*
D02*
G37*
G36*
X30403Y304676D02*
X28434D01*
Y301926D01*
X30403D01*
Y304676D01*
D02*
G37*
G36*
X26434D02*
X24466D01*
Y301926D01*
X26434D01*
Y304676D01*
D02*
G37*
G36*
X408852Y303178D02*
X406884D01*
Y300428D01*
X408852D01*
Y303178D01*
D02*
G37*
G36*
X404884D02*
X402915D01*
Y300428D01*
X404884D01*
Y303178D01*
D02*
G37*
G36*
X47119Y300805D02*
X46057Y300665D01*
X45066Y300255D01*
X44216Y299603D01*
X43664Y298883D01*
X41434D01*
Y300376D01*
X31434D01*
Y289321D01*
X41434D01*
Y290814D01*
X43664D01*
X44216Y290095D01*
X45066Y289442D01*
X46057Y289032D01*
X47119Y288892D01*
X48182Y289032D01*
X49172Y289442D01*
X50023Y290095D01*
X50675Y290945D01*
X51085Y291936D01*
X51225Y292998D01*
Y296699D01*
X51085Y297762D01*
X50675Y298752D01*
X50023Y299603D01*
X49172Y300255D01*
X48182Y300665D01*
X47119Y300805D01*
D02*
G37*
G36*
X58119Y300674D02*
Y295849D01*
X61225D01*
Y296699D01*
X61085Y297762D01*
X60675Y298752D01*
X60023Y299603D01*
X59172Y300255D01*
X58182Y300665D01*
X58119Y300674D01*
D02*
G37*
G36*
X56119Y300674D02*
X56057Y300665D01*
X55066Y300255D01*
X54216Y299603D01*
X53563Y298752D01*
X53153Y297762D01*
X53013Y296699D01*
Y295849D01*
X56119D01*
Y300674D01*
D02*
G37*
G36*
X408852Y298428D02*
X405884D01*
X402915D01*
Y295678D01*
Y293341D01*
X405884D01*
X408852D01*
Y295678D01*
Y298428D01*
D02*
G37*
G36*
X26262Y334340D02*
X25384Y334224D01*
X24566Y333886D01*
X23864Y333347D01*
X23325Y332644D01*
X22986Y331826D01*
X22871Y330949D01*
Y328586D01*
X22986Y327709D01*
X23325Y326891D01*
X23488Y326678D01*
Y321648D01*
X16473Y314633D01*
X16032Y314059D01*
X15755Y313390D01*
X15661Y312672D01*
Y309426D01*
X15466D01*
Y301926D01*
X15661D01*
Y300376D01*
X13434D01*
Y289321D01*
X23434D01*
Y300376D01*
X21208D01*
Y301926D01*
X21403D01*
Y309426D01*
X21208D01*
Y311523D01*
X28223Y318538D01*
X28664Y319112D01*
X28941Y319781D01*
X29035Y320499D01*
Y326678D01*
X29199Y326891D01*
X29537Y327709D01*
X29653Y328586D01*
Y330949D01*
X29537Y331826D01*
X29199Y332644D01*
X28660Y333347D01*
X27957Y333886D01*
X27139Y334224D01*
X26262Y334340D01*
D02*
G37*
G36*
X61225Y293849D02*
X58119D01*
Y289024D01*
X58182Y289032D01*
X59172Y289442D01*
X60023Y290095D01*
X60675Y290945D01*
X61085Y291936D01*
X61225Y292998D01*
Y293849D01*
D02*
G37*
G36*
X56119D02*
X53013D01*
Y292998D01*
X53153Y291936D01*
X53563Y290945D01*
X54216Y290095D01*
X55066Y289442D01*
X56057Y289032D01*
X56119Y289024D01*
Y293849D01*
D02*
G37*
G36*
X191190Y300770D02*
X183048D01*
Y288928D01*
X191190D01*
Y300770D01*
D02*
G37*
G36*
X177119Y300805D02*
X176057Y300665D01*
X175066Y300255D01*
X174216Y299603D01*
X173563Y298752D01*
X173153Y297762D01*
X173013Y296699D01*
Y292998D01*
X173153Y291936D01*
X173563Y290945D01*
X174216Y290095D01*
X175066Y289442D01*
X176057Y289032D01*
X177119Y288892D01*
X178182Y289032D01*
X179172Y289442D01*
X180023Y290095D01*
X180675Y290945D01*
X181085Y291936D01*
X181225Y292998D01*
Y296699D01*
X181085Y297762D01*
X180675Y298752D01*
X180023Y299603D01*
X179172Y300255D01*
X178182Y300665D01*
X177119Y300805D01*
D02*
G37*
G36*
X167119D02*
X166057Y300665D01*
X165066Y300255D01*
X164216Y299603D01*
X163563Y298752D01*
X163153Y297762D01*
X163013Y296699D01*
Y292998D01*
X163153Y291936D01*
X163563Y290945D01*
X164216Y290095D01*
X165066Y289442D01*
X166057Y289032D01*
X167119Y288892D01*
X168182Y289032D01*
X169172Y289442D01*
X170023Y290095D01*
X170675Y290945D01*
X171085Y291936D01*
X171225Y292998D01*
Y296699D01*
X171085Y297762D01*
X170675Y298752D01*
X170023Y299603D01*
X169172Y300255D01*
X168182Y300665D01*
X167119Y300805D01*
D02*
G37*
G36*
X193424Y384601D02*
X192184Y384438D01*
X191028Y383959D01*
X190036Y383198D01*
X189275Y382205D01*
X188796Y381050D01*
X188633Y379810D01*
X188796Y378570D01*
X189275Y377414D01*
X190036Y376422D01*
X191028Y375661D01*
X191385Y375513D01*
Y367310D01*
Y359107D01*
X191028Y358959D01*
X190036Y358198D01*
X189275Y357205D01*
X188796Y356050D01*
X188633Y354810D01*
X188796Y353570D01*
X189275Y352414D01*
X190036Y351422D01*
X191028Y350661D01*
X191385Y350513D01*
Y320802D01*
X188227Y317644D01*
X177572D01*
X176792Y317489D01*
X176130Y317047D01*
X164372Y305289D01*
X159217D01*
X158437Y305134D01*
X157775Y304692D01*
X155677Y302594D01*
X155235Y301933D01*
X155080Y301152D01*
Y300261D01*
X155066Y300255D01*
X154216Y299603D01*
X153563Y298752D01*
X153153Y297762D01*
X153013Y296699D01*
Y292998D01*
X153153Y291936D01*
X153563Y290945D01*
X154216Y290095D01*
X155066Y289442D01*
X156057Y289032D01*
X157119Y288892D01*
X158182Y289032D01*
X159172Y289442D01*
X160023Y290095D01*
X160675Y290945D01*
X161085Y291936D01*
X161225Y292998D01*
Y296699D01*
X161085Y297762D01*
X160675Y298752D01*
X160023Y299603D01*
X159535Y299977D01*
X159491Y300641D01*
X160062Y301211D01*
X165217D01*
X165997Y301366D01*
X166659Y301808D01*
X178417Y313566D01*
X189072D01*
X189852Y313721D01*
X190514Y314163D01*
X194866Y318515D01*
X195308Y319177D01*
X195463Y319957D01*
Y350513D01*
X195819Y350661D01*
X196812Y351422D01*
X197573Y352414D01*
X198052Y353570D01*
X198215Y354810D01*
X198052Y356050D01*
X197573Y357205D01*
X196812Y358198D01*
X195819Y358959D01*
X195463Y359107D01*
Y363542D01*
X195956Y363560D01*
Y363560D01*
X201893D01*
Y371060D01*
X195956D01*
Y371060D01*
X195463Y371078D01*
Y375513D01*
X195819Y375661D01*
X196812Y376422D01*
X197573Y377414D01*
X198052Y378570D01*
X198215Y379810D01*
X198052Y381050D01*
X197573Y382205D01*
X196812Y383198D01*
X195819Y383959D01*
X194664Y384438D01*
X193424Y384601D01*
D02*
G37*
G36*
X132719D02*
X131479Y384438D01*
X130324Y383959D01*
X129331Y383198D01*
X128570Y382205D01*
X128091Y381050D01*
X127928Y379810D01*
X128091Y378570D01*
X128570Y377414D01*
X129331Y376422D01*
X130324Y375661D01*
X130680Y375513D01*
Y359107D01*
X130324Y358959D01*
X129331Y358198D01*
X128570Y357205D01*
X128091Y356050D01*
X127928Y354810D01*
X128091Y353570D01*
X128570Y352414D01*
X129331Y351422D01*
X130324Y350661D01*
X130680Y350513D01*
Y317928D01*
X125677Y312926D01*
X125235Y312264D01*
X125080Y311484D01*
Y300261D01*
X125066Y300255D01*
X124216Y299603D01*
X123563Y298752D01*
X123153Y297762D01*
X123013Y296699D01*
Y292998D01*
X123153Y291936D01*
X123563Y290945D01*
X124216Y290095D01*
X125066Y289442D01*
X126057Y289032D01*
X127119Y288892D01*
X128182Y289032D01*
X129172Y289442D01*
X130023Y290095D01*
X130675Y290945D01*
X131085Y291936D01*
X131225Y292998D01*
Y296699D01*
X131085Y297762D01*
X130675Y298752D01*
X130023Y299603D01*
X129172Y300255D01*
X129158Y300261D01*
Y310639D01*
X134161Y315642D01*
X134603Y316303D01*
X134758Y317084D01*
Y350513D01*
X135115Y350661D01*
X136107Y351422D01*
X136868Y352414D01*
X137347Y353570D01*
X137510Y354810D01*
X137347Y356050D01*
X136868Y357205D01*
X136107Y358198D01*
X135115Y358959D01*
X134758Y359107D01*
Y363542D01*
X135251Y363560D01*
Y363560D01*
X141188D01*
Y371060D01*
X135251D01*
Y371060D01*
X134758Y371078D01*
Y375513D01*
X135115Y375661D01*
X136107Y376422D01*
X136868Y377414D01*
X137347Y378570D01*
X137510Y379810D01*
X137347Y381050D01*
X136868Y382205D01*
X136107Y383198D01*
X135115Y383959D01*
X133959Y384438D01*
X132719Y384601D01*
D02*
G37*
G36*
X76217Y329206D02*
X75154Y329066D01*
X74164Y328656D01*
X73313Y328004D01*
X72661Y327153D01*
X72251Y326163D01*
X72111Y325100D01*
Y321399D01*
X72251Y320337D01*
X72661Y319346D01*
X73313Y318496D01*
X74164Y317844D01*
X74178Y317838D01*
Y314094D01*
X65677Y305594D01*
X65235Y304933D01*
X65080Y304152D01*
Y300261D01*
X65066Y300255D01*
X64216Y299603D01*
X63563Y298752D01*
X63153Y297762D01*
X63013Y296699D01*
Y292998D01*
X63153Y291936D01*
X63563Y290945D01*
X64216Y290095D01*
X65066Y289442D01*
X66057Y289032D01*
X67119Y288892D01*
X68182Y289032D01*
X69172Y289442D01*
X70023Y290095D01*
X70675Y290945D01*
X71085Y291936D01*
X71225Y292998D01*
Y296699D01*
X71085Y297762D01*
X70675Y298752D01*
X70023Y299603D01*
X69172Y300255D01*
X69159Y300261D01*
Y303308D01*
X77659Y311808D01*
X78101Y312469D01*
X78256Y313250D01*
X78256Y313250D01*
Y317838D01*
X78270Y317844D01*
X79120Y318496D01*
X79773Y319346D01*
X80183Y320337D01*
X80323Y321399D01*
Y325100D01*
X80183Y326163D01*
X79773Y327153D01*
X79120Y328004D01*
X78270Y328656D01*
X77280Y329066D01*
X76217Y329206D01*
D02*
G37*
G36*
X399852Y284254D02*
X397883D01*
Y281504D01*
X399852D01*
Y284254D01*
D02*
G37*
G36*
X395883D02*
X393915D01*
Y281504D01*
X395883D01*
Y284254D01*
D02*
G37*
G36*
X417147Y255842D02*
Y252084D01*
X421556D01*
X421525Y252324D01*
X421046Y253480D01*
X420285Y254472D01*
X419292Y255233D01*
X418137Y255712D01*
X417147Y255842D01*
D02*
G37*
G36*
X415147Y255842D02*
X414157Y255712D01*
X413001Y255233D01*
X412009Y254472D01*
X411248Y253480D01*
X410769Y252324D01*
X410738Y252084D01*
X415147D01*
Y255842D01*
D02*
G37*
G36*
X395883Y244834D02*
X393915D01*
Y242084D01*
X395883D01*
Y244834D01*
D02*
G37*
G36*
Y240084D02*
X393915D01*
Y237334D01*
X395883D01*
Y240084D01*
D02*
G37*
G36*
X33119Y230752D02*
Y227345D01*
X36527D01*
X36503Y227520D01*
X36050Y228614D01*
X35329Y229554D01*
X34389Y230276D01*
X33294Y230729D01*
X33119Y230752D01*
D02*
G37*
G36*
X31119D02*
X30945Y230729D01*
X29850Y230276D01*
X28910Y229554D01*
X28189Y228614D01*
X27735Y227520D01*
X27712Y227345D01*
X31119D01*
Y230752D01*
D02*
G37*
G36*
X36527Y225345D02*
X33119D01*
Y221938D01*
X33294Y221961D01*
X34389Y222414D01*
X35329Y223135D01*
X36050Y224076D01*
X36503Y225170D01*
X36527Y225345D01*
D02*
G37*
G36*
X31119D02*
X27712D01*
X27735Y225170D01*
X28189Y224076D01*
X28910Y223135D01*
X29850Y222414D01*
X30945Y221961D01*
X31119Y221938D01*
Y225345D01*
D02*
G37*
G36*
X38119Y216504D02*
Y211597D01*
X41658D01*
Y212097D01*
X41504Y213272D01*
X41050Y214366D01*
X40329Y215306D01*
X39389Y216028D01*
X38294Y216481D01*
X38119Y216504D01*
D02*
G37*
G36*
X36119D02*
X35945Y216481D01*
X34850Y216028D01*
X33910Y215306D01*
X33189Y214366D01*
X32735Y213272D01*
X32581Y212097D01*
Y211597D01*
X36119D01*
Y216504D01*
D02*
G37*
G36*
X417147Y213307D02*
Y209549D01*
X421556D01*
X421525Y209789D01*
X421046Y210944D01*
X420285Y211936D01*
X419292Y212698D01*
X418137Y213176D01*
X417147Y213307D01*
D02*
G37*
G36*
X415147Y213307D02*
X414157Y213176D01*
X413001Y212698D01*
X412009Y211936D01*
X411248Y210944D01*
X410769Y209789D01*
X410738Y209549D01*
X415147D01*
Y213307D01*
D02*
G37*
G36*
X41658Y209597D02*
X38119D01*
Y204690D01*
X38294Y204713D01*
X39389Y205166D01*
X40329Y205887D01*
X41050Y206827D01*
X41504Y207922D01*
X41658Y209097D01*
Y209597D01*
D02*
G37*
G36*
X36119D02*
X32581D01*
Y209097D01*
X32735Y207922D01*
X33189Y206827D01*
X33910Y205887D01*
X34850Y205166D01*
X35945Y204713D01*
X36119Y204690D01*
Y209597D01*
D02*
G37*
G36*
X395883Y202299D02*
X393915D01*
Y199549D01*
X395883D01*
Y202299D01*
D02*
G37*
G36*
X58119Y200674D02*
Y195849D01*
X61225D01*
Y196699D01*
X61085Y197762D01*
X60675Y198752D01*
X60023Y199603D01*
X59172Y200255D01*
X58182Y200665D01*
X58119Y200674D01*
D02*
G37*
G36*
X56119D02*
X56057Y200665D01*
X55066Y200255D01*
X54216Y199603D01*
X53563Y198752D01*
X53153Y197762D01*
X53013Y196699D01*
Y195849D01*
X56119D01*
Y200674D01*
D02*
G37*
G36*
X395883Y197549D02*
X393915D01*
Y194799D01*
X395883D01*
Y197549D01*
D02*
G37*
G36*
X383471Y201248D02*
X382310Y201134D01*
X381194Y200795D01*
X380165Y200245D01*
X379264Y199505D01*
X378524Y198604D01*
X377974Y197575D01*
X377635Y196459D01*
X377521Y195298D01*
X377635Y194137D01*
X377974Y193021D01*
X378524Y191992D01*
X379264Y191091D01*
X380165Y190351D01*
X381194Y189801D01*
X382310Y189462D01*
X383471Y189348D01*
X384632Y189462D01*
X385748Y189801D01*
X386776Y190351D01*
X387678Y191091D01*
X388418Y191992D01*
X388968Y193021D01*
X389306Y194137D01*
X389421Y195298D01*
X389306Y196459D01*
X388968Y197575D01*
X388418Y198604D01*
X387678Y199505D01*
X386776Y200245D01*
X385748Y200795D01*
X384632Y201134D01*
X383471Y201248D01*
D02*
G37*
G36*
X226778D02*
X225617Y201134D01*
X224501Y200795D01*
X223472Y200245D01*
X222571Y199505D01*
X221831Y198604D01*
X221281Y197575D01*
X220942Y196459D01*
X220828Y195298D01*
X220942Y194137D01*
X221281Y193021D01*
X221831Y191992D01*
X222571Y191091D01*
X223472Y190351D01*
X224501Y189801D01*
X225617Y189462D01*
X226778Y189348D01*
X227939Y189462D01*
X229055Y189801D01*
X230083Y190351D01*
X230985Y191091D01*
X231725Y191992D01*
X232275Y193021D01*
X232613Y194137D01*
X232728Y195298D01*
X232613Y196459D01*
X232275Y197575D01*
X231725Y198604D01*
X230985Y199505D01*
X230083Y200245D01*
X229055Y200795D01*
X227939Y201134D01*
X226778Y201248D01*
D02*
G37*
G36*
X61225Y193849D02*
X58119D01*
Y189024D01*
X58182Y189032D01*
X59172Y189443D01*
X60023Y190095D01*
X60675Y190945D01*
X61085Y191936D01*
X61225Y192998D01*
Y193849D01*
D02*
G37*
G36*
X56119D02*
X53013D01*
Y192998D01*
X53153Y191936D01*
X53563Y190945D01*
X54216Y190095D01*
X55066Y189443D01*
X56057Y189032D01*
X56119Y189024D01*
Y193849D01*
D02*
G37*
G36*
X187119Y200805D02*
X186057Y200665D01*
X185066Y200255D01*
X184216Y199603D01*
X183563Y198752D01*
X183153Y197762D01*
X183013Y196699D01*
Y192998D01*
X183153Y191936D01*
X183563Y190945D01*
X184216Y190095D01*
X185066Y189443D01*
X186057Y189032D01*
X187119Y188892D01*
X188182Y189032D01*
X189172Y189443D01*
X190023Y190095D01*
X190675Y190945D01*
X191085Y191936D01*
X191225Y192998D01*
Y196699D01*
X191085Y197762D01*
X190675Y198752D01*
X190023Y199603D01*
X189172Y200255D01*
X188182Y200665D01*
X187119Y200805D01*
D02*
G37*
G36*
X177119D02*
X176057Y200665D01*
X175066Y200255D01*
X174216Y199603D01*
X173563Y198752D01*
X173153Y197762D01*
X173013Y196699D01*
Y192998D01*
X173153Y191936D01*
X173563Y190945D01*
X174216Y190095D01*
X175066Y189443D01*
X176057Y189032D01*
X177119Y188892D01*
X178182Y189032D01*
X179172Y189443D01*
X180023Y190095D01*
X180675Y190945D01*
X181085Y191936D01*
X181225Y192998D01*
Y196699D01*
X181085Y197762D01*
X180675Y198752D01*
X180023Y199603D01*
X179172Y200255D01*
X178182Y200665D01*
X177119Y200805D01*
D02*
G37*
G36*
X167119D02*
X166057Y200665D01*
X165066Y200255D01*
X164216Y199603D01*
X163563Y198752D01*
X163153Y197762D01*
X163013Y196699D01*
Y192998D01*
X163153Y191936D01*
X163563Y190945D01*
X164216Y190095D01*
X165066Y189443D01*
X166057Y189032D01*
X167119Y188892D01*
X168182Y189032D01*
X169172Y189443D01*
X170023Y190095D01*
X170675Y190945D01*
X171085Y191936D01*
X171225Y192998D01*
Y196699D01*
X171085Y197762D01*
X170675Y198752D01*
X170023Y199603D01*
X169172Y200255D01*
X168182Y200665D01*
X167119Y200805D01*
D02*
G37*
G36*
X157119D02*
X156057Y200665D01*
X155066Y200255D01*
X154216Y199603D01*
X153563Y198752D01*
X153153Y197762D01*
X153013Y196699D01*
Y192998D01*
X153153Y191936D01*
X153563Y190945D01*
X154216Y190095D01*
X155066Y189443D01*
X156057Y189032D01*
X157119Y188892D01*
X158182Y189032D01*
X159172Y189443D01*
X160023Y190095D01*
X160675Y190945D01*
X161085Y191936D01*
X161225Y192998D01*
Y196699D01*
X161085Y197762D01*
X160675Y198752D01*
X160023Y199603D01*
X159172Y200255D01*
X158182Y200665D01*
X157119Y200805D01*
D02*
G37*
G36*
X147119D02*
X146057Y200665D01*
X145066Y200255D01*
X144216Y199603D01*
X143563Y198752D01*
X143153Y197762D01*
X143013Y196699D01*
Y192998D01*
X143153Y191936D01*
X143563Y190945D01*
X144216Y190095D01*
X145066Y189443D01*
X146057Y189032D01*
X147119Y188892D01*
X148182Y189032D01*
X149172Y189443D01*
X150023Y190095D01*
X150675Y190945D01*
X151085Y191936D01*
X151225Y192998D01*
Y196699D01*
X151085Y197762D01*
X150675Y198752D01*
X150023Y199603D01*
X149172Y200255D01*
X148182Y200665D01*
X147119Y200805D01*
D02*
G37*
G36*
X77119D02*
X76057Y200665D01*
X75066Y200255D01*
X74216Y199603D01*
X73563Y198752D01*
X73153Y197762D01*
X73013Y196699D01*
Y192998D01*
X73153Y191936D01*
X73563Y190945D01*
X74216Y190095D01*
X75066Y189443D01*
X76057Y189032D01*
X77119Y188892D01*
X78182Y189032D01*
X79172Y189443D01*
X80023Y190095D01*
X80675Y190945D01*
X81085Y191936D01*
X81225Y192998D01*
Y196699D01*
X81085Y197762D01*
X80675Y198752D01*
X80023Y199603D01*
X79172Y200255D01*
X78182Y200665D01*
X77119Y200805D01*
D02*
G37*
G36*
X16196Y172888D02*
X16021Y172865D01*
X14927Y172412D01*
X13987Y171690D01*
X13265Y170750D01*
X12812Y169656D01*
X12789Y169481D01*
X16196D01*
Y172888D01*
D02*
G37*
G36*
Y167481D02*
X12789D01*
X12812Y167306D01*
X13265Y166211D01*
X13987Y165271D01*
X14927Y164550D01*
X16021Y164097D01*
X16196Y164074D01*
Y167481D01*
D02*
G37*
G36*
X64724Y174157D02*
X63177Y174004D01*
X61690Y173553D01*
X60319Y172821D01*
X59118Y171835D01*
X58132Y170633D01*
X57399Y169263D01*
X56948Y167775D01*
X56796Y166229D01*
X56948Y164682D01*
X57399Y163195D01*
X58132Y161824D01*
X59118Y160623D01*
X60319Y159637D01*
X61690Y158904D01*
X63177Y158453D01*
X64724Y158301D01*
X66270Y158453D01*
X67757Y158904D01*
X69128Y159637D01*
X70329Y160623D01*
X71315Y161824D01*
X72048Y163195D01*
X72499Y164682D01*
X72652Y166229D01*
X72499Y167775D01*
X72048Y169263D01*
X71315Y170633D01*
X70329Y171835D01*
X69128Y172821D01*
X67757Y173553D01*
X66270Y174004D01*
X64724Y174157D01*
D02*
G37*
G36*
X377959Y172197D02*
X376412Y172045D01*
X374925Y171594D01*
X373554Y170861D01*
X372353Y169876D01*
X371367Y168674D01*
X370635Y167304D01*
X370183Y165816D01*
X370031Y164270D01*
X370183Y162723D01*
X370635Y161236D01*
X371367Y159865D01*
X372353Y158664D01*
X373554Y157678D01*
X374925Y156945D01*
X376412Y156494D01*
X377959Y156342D01*
X379506Y156494D01*
X380993Y156945D01*
X382364Y157678D01*
X383565Y158664D01*
X384551Y159865D01*
X385283Y161236D01*
X385735Y162723D01*
X385887Y164270D01*
X385735Y165816D01*
X385283Y167304D01*
X384551Y168674D01*
X383565Y169876D01*
X382364Y170861D01*
X380993Y171594D01*
X379506Y172045D01*
X377959Y172197D01*
D02*
G37*
G36*
X232290D02*
X230743Y172045D01*
X229256Y171594D01*
X227885Y170861D01*
X226684Y169876D01*
X225698Y168674D01*
X224965Y167304D01*
X224514Y165816D01*
X224362Y164270D01*
X224514Y162723D01*
X224965Y161236D01*
X225698Y159865D01*
X226684Y158664D01*
X227885Y157678D01*
X229256Y156945D01*
X230743Y156494D01*
X232290Y156342D01*
X233836Y156494D01*
X235324Y156945D01*
X236694Y157678D01*
X237896Y158664D01*
X238882Y159865D01*
X239614Y161236D01*
X240065Y162723D01*
X240218Y164270D01*
X240065Y165816D01*
X239614Y167304D01*
X238882Y168674D01*
X237896Y169876D01*
X236694Y170861D01*
X235324Y171594D01*
X233836Y172045D01*
X232290Y172197D01*
D02*
G37*
G36*
X215601Y157888D02*
Y154481D01*
X219008D01*
X218985Y154656D01*
X218532Y155750D01*
X217811Y156690D01*
X216871Y157412D01*
X215776Y157865D01*
X215601Y157888D01*
D02*
G37*
G36*
X213601D02*
X213426Y157865D01*
X212332Y157412D01*
X211392Y156690D01*
X210670Y155750D01*
X210217Y154656D01*
X210194Y154481D01*
X213601D01*
Y157888D01*
D02*
G37*
G36*
X18693Y153445D02*
X16725D01*
Y151477D01*
X18693D01*
Y153445D01*
D02*
G37*
G36*
X14725D02*
X12756D01*
Y151477D01*
X14725D01*
Y153445D01*
D02*
G37*
G36*
X219008Y152481D02*
X215601D01*
Y149074D01*
X215776Y149097D01*
X216871Y149550D01*
X217811Y150271D01*
X218532Y151211D01*
X218985Y152306D01*
X219008Y152481D01*
D02*
G37*
G36*
X213601D02*
X210194D01*
X210217Y152306D01*
X210670Y151211D01*
X211392Y150271D01*
X212332Y149550D01*
X213426Y149097D01*
X213601Y149074D01*
Y152481D01*
D02*
G37*
G36*
X18693Y149477D02*
X16725D01*
Y147508D01*
X18693D01*
Y149477D01*
D02*
G37*
G36*
X14725D02*
X12756D01*
Y147508D01*
X14725D01*
Y149477D01*
D02*
G37*
G36*
X328282Y141403D02*
Y137000D01*
X331316D01*
Y137500D01*
X331179Y138544D01*
X330776Y139517D01*
X330135Y140353D01*
X329299Y140994D01*
X328326Y141397D01*
X328282Y141403D01*
D02*
G37*
G36*
X301124D02*
Y137000D01*
X304159D01*
Y137500D01*
X304022Y138544D01*
X303618Y139517D01*
X302977Y140353D01*
X302142Y140994D01*
X301169Y141397D01*
X301124Y141403D01*
D02*
G37*
G36*
X326282D02*
X326238Y141397D01*
X325265Y140994D01*
X324429Y140353D01*
X323788Y139517D01*
X323385Y138544D01*
X323247Y137500D01*
Y137000D01*
X326282D01*
Y141403D01*
D02*
G37*
G36*
X299124D02*
X299080Y141397D01*
X298107Y140994D01*
X297272Y140353D01*
X296630Y139517D01*
X296227Y138544D01*
X296090Y137500D01*
Y137000D01*
X299124D01*
Y141403D01*
D02*
G37*
G36*
X273967D02*
Y137000D01*
X277001D01*
Y137500D01*
X276864Y138544D01*
X276461Y139517D01*
X275820Y140353D01*
X274984Y140994D01*
X274011Y141397D01*
X273967Y141403D01*
D02*
G37*
G36*
X271967D02*
X271923Y141397D01*
X270950Y140994D01*
X270114Y140353D01*
X269473Y139517D01*
X269070Y138544D01*
X268932Y137500D01*
Y137000D01*
X271967D01*
Y141403D01*
D02*
G37*
G36*
X18693Y137697D02*
X16725D01*
Y135729D01*
X18693D01*
Y137697D01*
D02*
G37*
G36*
X14725D02*
X12756D01*
Y135729D01*
X14725D01*
Y137697D01*
D02*
G37*
G36*
X18693Y133729D02*
X16725D01*
Y131760D01*
X18693D01*
Y133729D01*
D02*
G37*
G36*
X14725D02*
X12756D01*
Y131760D01*
X14725D01*
Y133729D01*
D02*
G37*
G36*
X32894Y138479D02*
X26957D01*
Y137964D01*
X26567Y137697D01*
X20630D01*
Y131760D01*
X26567D01*
X26957Y131494D01*
Y130979D01*
X32894D01*
Y138479D01*
D02*
G37*
G36*
X271967Y135000D02*
X268932D01*
Y134500D01*
X269070Y133456D01*
X269473Y132483D01*
X270114Y131647D01*
X270950Y131006D01*
X271923Y130603D01*
X271967Y130597D01*
Y135000D01*
D02*
G37*
G36*
X331316Y135000D02*
X328282D01*
Y130597D01*
X328326Y130603D01*
X329299Y131006D01*
X330135Y131647D01*
X330776Y132483D01*
X331179Y133456D01*
X331316Y134500D01*
Y135000D01*
D02*
G37*
G36*
X304159D02*
X301124D01*
Y130597D01*
X301169Y130603D01*
X302142Y131006D01*
X302977Y131647D01*
X303618Y132483D01*
X304022Y133456D01*
X304159Y134500D01*
Y135000D01*
D02*
G37*
G36*
X326282D02*
X323247D01*
Y134500D01*
X323385Y133456D01*
X323788Y132483D01*
X324429Y131647D01*
X325265Y131006D01*
X326238Y130603D01*
X326282Y130597D01*
Y135000D01*
D02*
G37*
G36*
X299124D02*
X296090D01*
Y134500D01*
X296227Y133456D01*
X296630Y132483D01*
X297272Y131647D01*
X298107Y131006D01*
X299080Y130603D01*
X299124Y130597D01*
Y135000D01*
D02*
G37*
G36*
X277001Y135000D02*
X273967D01*
Y130597D01*
X274011Y130603D01*
X274984Y131006D01*
X275820Y131647D01*
X276461Y132483D01*
X276864Y133456D01*
X277001Y134500D01*
Y135000D01*
D02*
G37*
G36*
X340250Y152545D02*
X334313D01*
Y145045D01*
X335243D01*
Y141500D01*
X333282D01*
Y130500D01*
X341282D01*
Y141500D01*
X339321D01*
Y145045D01*
X340250D01*
Y152545D01*
D02*
G37*
G36*
X313093D02*
X307156D01*
Y145045D01*
X308085D01*
Y141500D01*
X306124D01*
Y130500D01*
X314124D01*
Y141500D01*
X312164D01*
Y145045D01*
X313093D01*
Y152545D01*
D02*
G37*
G36*
X285935D02*
X279998D01*
Y145045D01*
X280928D01*
Y141500D01*
X278967D01*
Y130500D01*
X286967D01*
Y141500D01*
X285006D01*
Y145045D01*
X285935D01*
Y152545D01*
D02*
G37*
G36*
X18693Y121949D02*
X16725D01*
Y119981D01*
X18693D01*
Y121949D01*
D02*
G37*
G36*
X14725D02*
X12756D01*
Y119981D01*
X14725D01*
Y121949D01*
D02*
G37*
G36*
X18693Y117981D02*
X16725D01*
Y116012D01*
X18693D01*
Y117981D01*
D02*
G37*
G36*
X14725D02*
X12756D01*
Y116012D01*
X14725D01*
Y117981D01*
D02*
G37*
G36*
X32894Y122731D02*
X26957D01*
Y122216D01*
X26567Y121949D01*
X20630D01*
Y116012D01*
X26567D01*
X26957Y115746D01*
Y115231D01*
X32894D01*
Y122731D01*
D02*
G37*
G36*
X412703Y120515D02*
X411542Y120401D01*
X410426Y120062D01*
X409398Y119512D01*
X408496Y118772D01*
X407756Y117871D01*
X407206Y116842D01*
X406868Y115726D01*
X406753Y114565D01*
X406839Y113694D01*
X404914Y111768D01*
X389204D01*
X388290Y111648D01*
X387439Y111296D01*
X386707Y110734D01*
X370856Y94884D01*
X370296Y94153D01*
X369943Y93301D01*
X369823Y92387D01*
Y79955D01*
X367431D01*
Y68112D01*
X379274D01*
Y79955D01*
X376883D01*
Y90925D01*
X390666Y104708D01*
X406376D01*
X407290Y104828D01*
X408141Y105181D01*
X408873Y105742D01*
X411832Y108701D01*
X412703Y108615D01*
X413864Y108730D01*
X414980Y109068D01*
X416009Y109618D01*
X416910Y110358D01*
X417650Y111260D01*
X418200Y112288D01*
X418539Y113404D01*
X418653Y114565D01*
X418539Y115726D01*
X418200Y116842D01*
X417650Y117871D01*
X416910Y118772D01*
X416009Y119512D01*
X414980Y120062D01*
X413864Y120401D01*
X412703Y120515D01*
D02*
G37*
G36*
X328282Y111403D02*
Y107000D01*
X331316D01*
Y107500D01*
X331179Y108544D01*
X330776Y109517D01*
X330135Y110353D01*
X329299Y110994D01*
X328326Y111397D01*
X328282Y111403D01*
D02*
G37*
G36*
X301124D02*
Y107000D01*
X304159D01*
Y107500D01*
X304022Y108544D01*
X303618Y109517D01*
X302977Y110353D01*
X302142Y110994D01*
X301169Y111397D01*
X301124Y111403D01*
D02*
G37*
G36*
X326282D02*
X326238Y111397D01*
X325265Y110994D01*
X324429Y110353D01*
X323788Y109517D01*
X323385Y108544D01*
X323247Y107500D01*
Y107000D01*
X326282D01*
Y111403D01*
D02*
G37*
G36*
X299124D02*
X299080Y111397D01*
X298107Y110994D01*
X297272Y110353D01*
X296630Y109517D01*
X296227Y108544D01*
X296090Y107500D01*
Y107000D01*
X299124D01*
Y111403D01*
D02*
G37*
G36*
X273967D02*
Y107000D01*
X277001D01*
Y107500D01*
X276864Y108544D01*
X276461Y109517D01*
X275820Y110353D01*
X274984Y110994D01*
X274011Y111397D01*
X273967Y111403D01*
D02*
G37*
G36*
X271967D02*
X271923Y111397D01*
X270950Y110994D01*
X270114Y110353D01*
X269473Y109517D01*
X269070Y108544D01*
X268932Y107500D01*
Y107000D01*
X271967D01*
Y111403D01*
D02*
G37*
G36*
X202472Y106386D02*
Y101977D01*
X206230D01*
X206099Y102967D01*
X205621Y104122D01*
X204859Y105115D01*
X203867Y105876D01*
X202712Y106355D01*
X202472Y106386D01*
D02*
G37*
G36*
X200472D02*
X200232Y106355D01*
X199076Y105876D01*
X198084Y105115D01*
X197322Y104122D01*
X196844Y102967D01*
X196714Y101977D01*
X200472D01*
Y106386D01*
D02*
G37*
G36*
X46976D02*
Y101977D01*
X50734D01*
X50603Y102967D01*
X50125Y104122D01*
X49363Y105115D01*
X48371Y105876D01*
X47216Y106355D01*
X46976Y106386D01*
D02*
G37*
G36*
X44976D02*
X44736Y106355D01*
X43580Y105876D01*
X42588Y105115D01*
X41827Y104122D01*
X41348Y102967D01*
X41217Y101977D01*
X44976D01*
Y106386D01*
D02*
G37*
G36*
X271967Y105000D02*
X268932D01*
Y104500D01*
X269070Y103456D01*
X269473Y102483D01*
X270114Y101647D01*
X270950Y101006D01*
X271923Y100603D01*
X271967Y100597D01*
Y105000D01*
D02*
G37*
G36*
X331316Y105000D02*
X328282D01*
Y100597D01*
X328326Y100603D01*
X329299Y101006D01*
X330135Y101647D01*
X330776Y102483D01*
X331179Y103456D01*
X331316Y104500D01*
Y105000D01*
D02*
G37*
G36*
X304159D02*
X301124D01*
Y100597D01*
X301169Y100603D01*
X302142Y101006D01*
X302977Y101647D01*
X303618Y102483D01*
X304022Y103456D01*
X304159Y104500D01*
Y105000D01*
D02*
G37*
G36*
X326282D02*
X323247D01*
Y104500D01*
X323385Y103456D01*
X323788Y102483D01*
X324429Y101647D01*
X325265Y101006D01*
X326238Y100603D01*
X326282Y100597D01*
Y105000D01*
D02*
G37*
G36*
X299124D02*
X296090D01*
Y104500D01*
X296227Y103456D01*
X296630Y102483D01*
X297272Y101647D01*
X298107Y101006D01*
X299080Y100603D01*
X299124Y100597D01*
Y105000D01*
D02*
G37*
G36*
X277001Y105000D02*
X273967D01*
Y100597D01*
X274011Y100603D01*
X274984Y101006D01*
X275820Y101647D01*
X276461Y102483D01*
X276864Y103456D01*
X277001Y104500D01*
Y105000D01*
D02*
G37*
G36*
X206230Y99977D02*
X202472D01*
Y95568D01*
X202712Y95599D01*
X203867Y96078D01*
X204859Y96839D01*
X205621Y97831D01*
X206099Y98987D01*
X206230Y99977D01*
D02*
G37*
G36*
X200472D02*
X196714D01*
X196844Y98987D01*
X197322Y97831D01*
X198084Y96839D01*
X199076Y96078D01*
X200232Y95599D01*
X200472Y95568D01*
Y99977D01*
D02*
G37*
G36*
X50734D02*
X46976D01*
Y95568D01*
X47216Y95599D01*
X48371Y96078D01*
X49363Y96839D01*
X50125Y97831D01*
X50603Y98987D01*
X50734Y99977D01*
D02*
G37*
G36*
X44976D02*
X41217D01*
X41348Y98987D01*
X41827Y97831D01*
X42588Y96839D01*
X43580Y96078D01*
X44736Y95599D01*
X44976Y95568D01*
Y99977D01*
D02*
G37*
G36*
X182724Y111157D02*
X181177Y111004D01*
X179690Y110553D01*
X178319Y109821D01*
X177118Y108835D01*
X176132Y107633D01*
X175399Y106263D01*
X174948Y104776D01*
X174796Y103229D01*
X174948Y101682D01*
X175399Y100195D01*
X176132Y98824D01*
X177118Y97623D01*
X178319Y96637D01*
X179690Y95904D01*
X181177Y95453D01*
X182724Y95301D01*
X184270Y95453D01*
X185758Y95904D01*
X187128Y96637D01*
X188330Y97623D01*
X189315Y98824D01*
X190048Y100195D01*
X190499Y101682D01*
X190652Y103229D01*
X190499Y104776D01*
X190048Y106263D01*
X189315Y107633D01*
X188330Y108835D01*
X187128Y109821D01*
X185758Y110553D01*
X184270Y111004D01*
X182724Y111157D01*
D02*
G37*
G36*
X341561Y116456D02*
X266884D01*
X266104Y116301D01*
X265442Y115859D01*
X262775Y113192D01*
X262333Y112530D01*
X262178Y111750D01*
Y79750D01*
X262333Y78969D01*
X262775Y78308D01*
X270775Y70308D01*
X271437Y69866D01*
X272217Y69711D01*
X288153D01*
X294178Y63686D01*
Y47750D01*
X294333Y46969D01*
X294775Y46308D01*
X300155Y40928D01*
X300816Y40486D01*
X301597Y40331D01*
X303018D01*
Y39402D01*
X303994D01*
Y37950D01*
X303068Y37023D01*
X294717D01*
X293999Y36929D01*
X293330Y36652D01*
X292756Y36211D01*
X291313Y34768D01*
X290872Y34194D01*
X290595Y33525D01*
X290500Y32807D01*
Y28438D01*
X289968Y28154D01*
X289067Y27414D01*
X288327Y26512D01*
X287777Y25484D01*
X287438Y24367D01*
X287324Y23207D01*
X287438Y22046D01*
X287777Y20930D01*
X288327Y19901D01*
X289067Y18999D01*
X289968Y18259D01*
X290997Y17710D01*
X292113Y17371D01*
X293274Y17257D01*
X294435Y17371D01*
X295551Y17710D01*
X296580Y18259D01*
X297481Y18999D01*
X298221Y19901D01*
X298771Y20930D01*
X299110Y22046D01*
X299224Y23207D01*
X299110Y24367D01*
X298771Y25484D01*
X298221Y26512D01*
X297481Y27414D01*
X296580Y28154D01*
X296048Y28438D01*
Y31476D01*
X304217D01*
X304935Y31571D01*
X305604Y31848D01*
X306178Y32289D01*
X308730Y34840D01*
X309170Y35414D01*
X309447Y36083D01*
X309542Y36801D01*
Y39402D01*
X311081D01*
Y36579D01*
X311175Y35861D01*
X311453Y35192D01*
X311893Y34617D01*
X314222Y32289D01*
X314797Y31848D01*
X315466Y31571D01*
X316183Y31476D01*
X318474D01*
X319192Y31571D01*
X319861Y31848D01*
X320436Y32289D01*
X322706Y34559D01*
X323147Y35133D01*
X323424Y35802D01*
X323518Y36520D01*
Y37838D01*
X323563Y38319D01*
X324018Y38319D01*
X327926D01*
Y45877D01*
X328063Y45969D01*
X328563Y45701D01*
Y38319D01*
X328705D01*
Y31554D01*
X328860Y30774D01*
X329303Y30113D01*
X337940Y21475D01*
X337957Y21306D01*
X337856Y20852D01*
X337042Y20226D01*
X336313Y19277D01*
X335856Y18172D01*
X335699Y16986D01*
X335856Y15800D01*
X336313Y14695D01*
X337042Y13746D01*
X337991Y13017D01*
X339096Y12560D01*
X340282Y12404D01*
X341468Y12560D01*
X342573Y13017D01*
X343522Y13746D01*
X344250Y14695D01*
X344708Y15800D01*
X344864Y16986D01*
X344708Y18172D01*
X344250Y19277D01*
X343522Y20226D01*
X342573Y20955D01*
X342321Y21059D01*
Y22017D01*
X342321Y22017D01*
X342166Y22797D01*
X341724Y23459D01*
X332784Y32399D01*
Y38319D01*
X332926D01*
X332926Y46079D01*
X333369Y46371D01*
X333563Y46266D01*
Y38319D01*
X337926D01*
Y45877D01*
X338063Y45969D01*
X338563Y45701D01*
Y38319D01*
X338705D01*
Y31554D01*
X338861Y30774D01*
X339303Y30113D01*
X347940Y21475D01*
X347956Y21306D01*
X347856Y20852D01*
X347042Y20226D01*
X346313Y19277D01*
X345855Y18172D01*
X345699Y16986D01*
X345855Y15800D01*
X346313Y14695D01*
X347042Y13746D01*
X347991Y13017D01*
X349096Y12560D01*
X350282Y12404D01*
X351468Y12560D01*
X352573Y13017D01*
X353522Y13746D01*
X354251Y14695D01*
X354708Y15800D01*
X354864Y16986D01*
X354708Y18172D01*
X354251Y19277D01*
X353522Y20226D01*
X352573Y20955D01*
X352321Y21059D01*
Y22017D01*
X352321Y22017D01*
X352166Y22797D01*
X351724Y23459D01*
X342784Y32399D01*
Y38319D01*
X342926D01*
Y46421D01*
X338952Y46421D01*
X338949D01*
X338949D01*
X338831Y46421D01*
X338750Y46617D01*
X338624Y46921D01*
X341482Y49780D01*
X345061D01*
X345253Y49318D01*
X344303Y48368D01*
X343861Y47706D01*
X343705Y46926D01*
Y46421D01*
X343563D01*
Y38319D01*
X347926D01*
Y45877D01*
X348063Y45969D01*
X348563Y45701D01*
Y38319D01*
X348705D01*
Y31554D01*
X348861Y30774D01*
X349303Y30112D01*
X357424Y21991D01*
X357233Y21529D01*
X355739D01*
Y12442D01*
X364826D01*
Y21529D01*
X362322D01*
Y22016D01*
X362166Y22797D01*
X361724Y23458D01*
X352784Y32399D01*
Y38319D01*
X352926D01*
Y46280D01*
X352926Y46421D01*
X353267Y46780D01*
X356211D01*
X356992Y46935D01*
X357653Y47377D01*
X363103Y52827D01*
X363545Y53489D01*
X363701Y54269D01*
X363701Y54269D01*
Y71016D01*
X363545Y71796D01*
X363103Y72458D01*
X363103Y72458D01*
X353869Y81692D01*
X353208Y82134D01*
X352427Y82289D01*
X321304D01*
X320382Y83211D01*
X320561Y83711D01*
X335217D01*
X335997Y83866D01*
X336659Y84308D01*
X338659Y86308D01*
X339101Y86969D01*
X339256Y87750D01*
Y92998D01*
X340250D01*
Y100498D01*
X339321D01*
Y101023D01*
X340135Y101647D01*
X340776Y102483D01*
X341179Y103456D01*
X341316Y104500D01*
Y107500D01*
X341179Y108544D01*
X340776Y109517D01*
X340135Y110353D01*
X339299Y110994D01*
X338326Y111397D01*
X337282Y111535D01*
X336238Y111397D01*
X335265Y110994D01*
X334429Y110353D01*
X333788Y109517D01*
X333385Y108544D01*
X333247Y107500D01*
Y104500D01*
X333385Y103456D01*
X333788Y102483D01*
X334429Y101647D01*
X335243Y101023D01*
Y100498D01*
X334313D01*
Y92998D01*
X335178D01*
Y88594D01*
X334372Y87789D01*
X319474D01*
X319474Y87789D01*
X318694Y87634D01*
X318032Y87192D01*
X318032Y87192D01*
X316775Y85934D01*
X316333Y85273D01*
X316178Y84492D01*
Y83826D01*
X315716Y83635D01*
X312164Y87187D01*
Y92998D01*
X313093D01*
Y100498D01*
X312164D01*
Y101023D01*
X312977Y101647D01*
X313618Y102483D01*
X314021Y103456D01*
X314159Y104500D01*
Y107500D01*
X314021Y108544D01*
X313618Y109517D01*
X312977Y110353D01*
X312142Y110994D01*
X311169Y111397D01*
X310124Y111535D01*
X309080Y111397D01*
X308107Y110994D01*
X307272Y110353D01*
X306630Y109517D01*
X306227Y108544D01*
X306090Y107500D01*
Y104500D01*
X306227Y103456D01*
X306630Y102483D01*
X307272Y101647D01*
X308085Y101023D01*
Y100498D01*
X307156D01*
Y92998D01*
X308085D01*
Y87680D01*
X307585Y87413D01*
X307255Y87634D01*
X306474Y87789D01*
X289877D01*
X285168Y92498D01*
X285304Y92998D01*
X285935D01*
Y100498D01*
X285006D01*
Y101023D01*
X285820Y101647D01*
X286461Y102483D01*
X286864Y103456D01*
X287001Y104500D01*
Y107500D01*
X286864Y108544D01*
X286461Y109517D01*
X285820Y110353D01*
X284984Y110994D01*
X284011Y111397D01*
X282967Y111535D01*
X281923Y111397D01*
X280950Y110994D01*
X280114Y110353D01*
X279473Y109517D01*
X279070Y108544D01*
X278932Y107500D01*
Y104500D01*
X279070Y103456D01*
X279473Y102483D01*
X280114Y101647D01*
X280928Y101023D01*
Y100498D01*
X279998D01*
Y92998D01*
X280993D01*
Y91750D01*
X281148Y90969D01*
X281590Y90308D01*
X287590Y84308D01*
X288251Y83866D01*
X289032Y83711D01*
X305630D01*
X316532Y72808D01*
X317194Y72366D01*
X317974Y72211D01*
X317974Y72211D01*
X349097D01*
X353269Y68039D01*
X353093Y67858D01*
X352885Y67681D01*
X352428Y67681D01*
X351745D01*
Y64630D01*
X352926D01*
Y67181D01*
X352926Y67609D01*
X353322Y67926D01*
X353622Y67657D01*
Y57599D01*
X352881Y56858D01*
X339395D01*
X338615Y56703D01*
X337953Y56261D01*
X332551Y50858D01*
X327638D01*
X327638Y50858D01*
X326857Y50703D01*
X326196Y50261D01*
X324303Y48368D01*
X323861Y47706D01*
X323705Y46926D01*
Y46421D01*
X323563D01*
Y44447D01*
X323063Y44218D01*
X322926Y44337D01*
Y46421D01*
X318563D01*
Y44045D01*
X318342Y43757D01*
X318105Y43183D01*
X317605Y43283D01*
Y45339D01*
X303018D01*
Y44409D01*
X302441D01*
X298256Y48594D01*
Y64530D01*
X298101Y65311D01*
X297659Y65972D01*
X290440Y73192D01*
X289778Y73634D01*
X288998Y73789D01*
X273061D01*
X266256Y80594D01*
Y110905D01*
X267729Y112378D01*
X289928D01*
Y100498D01*
X288998D01*
Y92998D01*
X294935D01*
Y100498D01*
X294006D01*
Y112378D01*
X317085D01*
Y100498D01*
X316156D01*
Y92998D01*
X322093D01*
Y100498D01*
X321164D01*
Y112378D01*
X340716D01*
X344243Y108852D01*
Y100498D01*
X343313D01*
Y92998D01*
X349250D01*
Y100498D01*
X348321D01*
Y109696D01*
X348166Y110477D01*
X347724Y111138D01*
X343003Y115859D01*
X342341Y116301D01*
X341561Y116456D01*
D02*
G37*
G36*
X408030Y102769D02*
X395890D01*
X394976Y102648D01*
X394125Y102296D01*
X393394Y101735D01*
X385721Y94061D01*
X385160Y93330D01*
X384807Y92479D01*
X384687Y91565D01*
Y61712D01*
X380538Y57564D01*
X378116D01*
X377560Y58241D01*
X376658Y58981D01*
X375630Y59530D01*
X374514Y59869D01*
X373353Y59983D01*
X372192Y59869D01*
X371076Y59530D01*
X370047Y58981D01*
X369145Y58241D01*
X368406Y57339D01*
X367856Y56310D01*
X367517Y55194D01*
X367403Y54033D01*
X367517Y52873D01*
X367856Y51756D01*
X368406Y50728D01*
X369145Y49826D01*
X370047Y49086D01*
X371076Y48536D01*
X372192Y48198D01*
X373353Y48083D01*
X374514Y48198D01*
X375630Y48536D01*
X376658Y49086D01*
X377560Y49826D01*
X378116Y50503D01*
X382000D01*
X382914Y50623D01*
X383766Y50976D01*
X384497Y51537D01*
X390713Y57754D01*
X391274Y58485D01*
X391627Y59336D01*
X391747Y60250D01*
Y90103D01*
X397352Y95708D01*
X406568D01*
X406782Y95494D01*
Y88644D01*
X418624D01*
Y100486D01*
X411774D01*
X410526Y101735D01*
X409795Y102296D01*
X408944Y102648D01*
X408030Y102769D01*
D02*
G37*
G36*
X26868Y76560D02*
Y71709D01*
X31719D01*
X31703Y71870D01*
X31365Y72986D01*
X30815Y74015D01*
X30075Y74916D01*
X29173Y75656D01*
X28145Y76206D01*
X27029Y76544D01*
X26868Y76560D01*
D02*
G37*
G36*
X24868Y76560D02*
X24707Y76544D01*
X23591Y76206D01*
X22562Y75656D01*
X21660Y74916D01*
X20921Y74015D01*
X20371Y72986D01*
X20032Y71870D01*
X20016Y71709D01*
X24868D01*
Y76560D01*
D02*
G37*
G36*
X242817Y79955D02*
X230975D01*
Y68112D01*
X242817D01*
Y79955D01*
D02*
G37*
G36*
X24868Y69709D02*
X20016D01*
X20032Y69548D01*
X20371Y68432D01*
X20921Y67403D01*
X21660Y66502D01*
X22562Y65762D01*
X23591Y65212D01*
X24707Y64873D01*
X24868Y64858D01*
Y69709D01*
D02*
G37*
G36*
X31719D02*
X26868D01*
Y64858D01*
X27029Y64873D01*
X28145Y65212D01*
X29173Y65762D01*
X30075Y66502D01*
X30815Y67403D01*
X31365Y68432D01*
X31703Y69548D01*
X31719Y69709D01*
D02*
G37*
G36*
X349745Y67681D02*
X348563D01*
Y64630D01*
X349745D01*
Y67681D01*
D02*
G37*
G36*
X121403Y65291D02*
X120903D01*
Y61753D01*
X125810D01*
X125787Y61927D01*
X125333Y63022D01*
X124612Y63962D01*
X123672Y64683D01*
X122577Y65137D01*
X121403Y65291D01*
D02*
G37*
G36*
X90614D02*
X90114D01*
Y61753D01*
X95021D01*
X94998Y61927D01*
X94545Y63022D01*
X93823Y63962D01*
X92883Y64683D01*
X91789Y65137D01*
X90614Y65291D01*
D02*
G37*
G36*
X59826D02*
X59326D01*
Y61753D01*
X64233D01*
X64210Y61927D01*
X63756Y63022D01*
X63035Y63962D01*
X62095Y64683D01*
X61000Y65137D01*
X59826Y65291D01*
D02*
G37*
G36*
X118903D02*
X118403D01*
X117228Y65137D01*
X116133Y64683D01*
X115193Y63962D01*
X114472Y63022D01*
X114018Y61927D01*
X113995Y61753D01*
X118903D01*
Y65291D01*
D02*
G37*
G36*
X88114D02*
X87614D01*
X86439Y65137D01*
X85345Y64683D01*
X84405Y63962D01*
X83683Y63022D01*
X83230Y61927D01*
X83207Y61753D01*
X88114D01*
Y65291D01*
D02*
G37*
G36*
X57326D02*
X56826D01*
X55651Y65137D01*
X54556Y64683D01*
X53616Y63962D01*
X52895Y63022D01*
X52441Y61927D01*
X52418Y61753D01*
X57326D01*
Y65291D01*
D02*
G37*
G36*
X352926Y62630D02*
X351745D01*
Y59579D01*
X352926D01*
Y62630D01*
D02*
G37*
G36*
X349745D02*
X348563D01*
Y59579D01*
X349745D01*
Y62630D01*
D02*
G37*
G36*
X347926Y67681D02*
X343563D01*
Y59579D01*
X347926D01*
Y67681D01*
D02*
G37*
G36*
X342926D02*
X338563D01*
Y59579D01*
X342926D01*
Y67681D01*
D02*
G37*
G36*
X337926D02*
X333563D01*
Y59579D01*
X337926D01*
Y67681D01*
D02*
G37*
G36*
X332926D02*
X328563D01*
Y59579D01*
X332926D01*
Y67681D01*
D02*
G37*
G36*
X327926D02*
X323563D01*
Y59579D01*
X327926D01*
Y67681D01*
D02*
G37*
G36*
X322926D02*
X318563D01*
Y59579D01*
X322926D01*
Y67681D01*
D02*
G37*
G36*
X125810Y59753D02*
X120903D01*
Y56214D01*
X121403D01*
X122577Y56368D01*
X123672Y56822D01*
X124612Y57543D01*
X125333Y58483D01*
X125787Y59578D01*
X125810Y59753D01*
D02*
G37*
G36*
X118903D02*
X113995D01*
X114018Y59578D01*
X114472Y58483D01*
X115193Y57543D01*
X116133Y56822D01*
X117228Y56368D01*
X118403Y56214D01*
X118903D01*
Y59753D01*
D02*
G37*
G36*
X95021D02*
X90114D01*
Y56214D01*
X90614D01*
X91789Y56368D01*
X92883Y56822D01*
X93823Y57543D01*
X94545Y58483D01*
X94998Y59578D01*
X95021Y59753D01*
D02*
G37*
G36*
X88114D02*
X83207D01*
X83230Y59578D01*
X83683Y58483D01*
X84405Y57543D01*
X85345Y56822D01*
X86439Y56368D01*
X87614Y56214D01*
X88114D01*
Y59753D01*
D02*
G37*
G36*
X64233D02*
X59326D01*
Y56214D01*
X59826D01*
X61000Y56368D01*
X62095Y56822D01*
X63035Y57543D01*
X63756Y58483D01*
X64210Y59578D01*
X64233Y59753D01*
D02*
G37*
G36*
X57326D02*
X52418D01*
X52441Y59578D01*
X52895Y58483D01*
X53616Y57543D01*
X54556Y56822D01*
X55651Y56368D01*
X56826Y56214D01*
X57326D01*
Y59753D01*
D02*
G37*
G36*
X305768Y54339D02*
X303018D01*
Y52370D01*
X305768D01*
Y54339D01*
D02*
G37*
G36*
X317605D02*
X314855D01*
Y52370D01*
X317605D01*
Y54339D01*
D02*
G37*
G36*
Y50370D02*
X314855D01*
Y48402D01*
X317605D01*
Y50370D01*
D02*
G37*
G36*
X312855Y54339D02*
X307768D01*
Y51370D01*
Y48402D01*
X312855D01*
Y51370D01*
Y54339D01*
D02*
G37*
G36*
X305768Y50370D02*
X303018D01*
Y48402D01*
X305768D01*
Y50370D01*
D02*
G37*
G36*
X236896Y59983D02*
X235735Y59869D01*
X234619Y59530D01*
X233591Y58981D01*
X232689Y58241D01*
X231949Y57339D01*
X231399Y56310D01*
X231061Y55194D01*
X230946Y54033D01*
X231061Y52873D01*
X231399Y51756D01*
X231949Y50728D01*
X232689Y49826D01*
X233591Y49086D01*
X234619Y48536D01*
X235735Y48198D01*
X236896Y48083D01*
X238057Y48198D01*
X239173Y48536D01*
X240202Y49086D01*
X241103Y49826D01*
X241843Y50728D01*
X242393Y51756D01*
X242732Y52873D01*
X242846Y54033D01*
X242732Y55194D01*
X242393Y56310D01*
X241843Y57339D01*
X241103Y58241D01*
X240202Y58981D01*
X239173Y59530D01*
X238057Y59869D01*
X236896Y59983D01*
D02*
G37*
G36*
X118341Y35702D02*
X114341D01*
Y31174D01*
X118341D01*
Y35702D01*
D02*
G37*
G36*
X112341D02*
X108341D01*
Y31174D01*
X112341D01*
Y35702D01*
D02*
G37*
G36*
X118341Y29174D02*
X114341D01*
Y24646D01*
X118341D01*
Y29174D01*
D02*
G37*
G36*
X112341D02*
X108341D01*
Y24646D01*
X112341D01*
Y29174D01*
D02*
G37*
G36*
X274274Y29058D02*
Y24207D01*
X279125D01*
X279110Y24367D01*
X278771Y25484D01*
X278221Y26512D01*
X277481Y27414D01*
X276580Y28154D01*
X275551Y28704D01*
X274435Y29042D01*
X274274Y29058D01*
D02*
G37*
G36*
X272274D02*
X272113Y29042D01*
X270997Y28704D01*
X269968Y28154D01*
X269067Y27414D01*
X268327Y26512D01*
X267777Y25484D01*
X267438Y24367D01*
X267423Y24207D01*
X272274D01*
Y29058D01*
D02*
G37*
G36*
X414386Y32457D02*
Y20685D01*
X426158D01*
X426078Y21695D01*
X425607Y23656D01*
X424836Y25519D01*
X423782Y27239D01*
X422473Y28772D01*
X420939Y30081D01*
X419220Y31135D01*
X417357Y31907D01*
X415396Y32377D01*
X414386Y32457D01*
D02*
G37*
G36*
X412386D02*
X411376Y32377D01*
X409415Y31907D01*
X407552Y31135D01*
X405832Y30081D01*
X404299Y28772D01*
X402989Y27239D01*
X401936Y25519D01*
X401164Y23656D01*
X400693Y21695D01*
X400614Y20685D01*
X412386D01*
Y32457D01*
D02*
G37*
G36*
X20685D02*
Y20685D01*
X32457D01*
X32377Y21695D01*
X31907Y23656D01*
X31135Y25519D01*
X30081Y27239D01*
X28772Y28772D01*
X27239Y30081D01*
X25519Y31135D01*
X23656Y31907D01*
X21695Y32377D01*
X20685Y32457D01*
D02*
G37*
G36*
X18685D02*
X17675Y32377D01*
X15714Y31907D01*
X13851Y31135D01*
X12132Y30081D01*
X10598Y28772D01*
X9289Y27239D01*
X8235Y25519D01*
X7463Y23656D01*
X6993Y21695D01*
X6913Y20685D01*
X18685D01*
Y32457D01*
D02*
G37*
G36*
X279125Y22207D02*
X274274D01*
Y17355D01*
X274435Y17371D01*
X275551Y17710D01*
X276580Y18259D01*
X277481Y18999D01*
X278221Y19901D01*
X278771Y20930D01*
X279110Y22046D01*
X279125Y22207D01*
D02*
G37*
G36*
X272274D02*
X267423D01*
X267438Y22046D01*
X267777Y20930D01*
X268327Y19901D01*
X269067Y18999D01*
X269968Y18259D01*
X270997Y17710D01*
X272113Y17371D01*
X272274Y17355D01*
Y22207D01*
D02*
G37*
G36*
X31789Y56630D02*
X19947D01*
Y44788D01*
X31789D01*
Y46674D01*
X36100D01*
X43140Y39634D01*
Y29494D01*
X43140Y29494D01*
X43278Y28450D01*
X43681Y27477D01*
X44322Y26641D01*
X54164Y16799D01*
X55000Y16158D01*
X55973Y15755D01*
X57017Y15617D01*
X75793D01*
X76576Y14597D01*
X77690Y13743D01*
X78986Y13206D01*
X80378Y13023D01*
X81770Y13206D01*
X83066Y13743D01*
X84180Y14597D01*
X85034Y15711D01*
X85129Y15939D01*
X95627D01*
X95722Y15711D01*
X96576Y14597D01*
X97690Y13743D01*
X98986Y13206D01*
X100378Y13023D01*
X101770Y13206D01*
X103066Y13743D01*
X104180Y14597D01*
X105034Y15711D01*
X105571Y17008D01*
X105755Y18399D01*
Y21549D01*
X105571Y22940D01*
X105034Y24237D01*
X104180Y25351D01*
X103066Y26205D01*
X101770Y26742D01*
X100378Y26926D01*
X98986Y26742D01*
X97690Y26205D01*
X96576Y25351D01*
X95722Y24237D01*
X95627Y24009D01*
X85129D01*
X85034Y24237D01*
X84180Y25351D01*
X83066Y26205D01*
X81770Y26742D01*
X80378Y26926D01*
X78986Y26742D01*
X77690Y26205D01*
X76576Y25351D01*
X75722Y24237D01*
X75493Y23686D01*
X58688D01*
X51209Y31165D01*
Y41305D01*
X51072Y42349D01*
X50669Y43322D01*
X50028Y44158D01*
X40624Y53562D01*
X39788Y54203D01*
X38815Y54606D01*
X37771Y54743D01*
X37771Y54743D01*
X31789D01*
Y56630D01*
D02*
G37*
G36*
X314825Y21529D02*
X305739D01*
Y12443D01*
X314825D01*
Y21529D01*
D02*
G37*
G36*
X330282Y21569D02*
X329096Y21413D01*
X327991Y20955D01*
X327042Y20226D01*
X326313Y19277D01*
X325855Y18172D01*
X325699Y16986D01*
X325855Y15800D01*
X326313Y14695D01*
X327042Y13746D01*
X327991Y13017D01*
X329096Y12560D01*
X330282Y12404D01*
X331468Y12560D01*
X332573Y13017D01*
X333522Y13746D01*
X334250Y14695D01*
X334708Y15800D01*
X334864Y16986D01*
X334708Y18172D01*
X334250Y19277D01*
X333522Y20226D01*
X332573Y20955D01*
X331468Y21413D01*
X330282Y21569D01*
D02*
G37*
G36*
X320282D02*
X319096Y21413D01*
X317991Y20955D01*
X317042Y20226D01*
X316313Y19277D01*
X315856Y18172D01*
X315699Y16986D01*
X315856Y15800D01*
X316313Y14695D01*
X317042Y13746D01*
X317991Y13017D01*
X319096Y12560D01*
X320282Y12404D01*
X321468Y12560D01*
X322573Y13017D01*
X323522Y13746D01*
X324251Y14695D01*
X324708Y15800D01*
X324864Y16986D01*
X324708Y18172D01*
X324251Y19277D01*
X323522Y20226D01*
X322573Y20955D01*
X321468Y21413D01*
X320282Y21569D01*
D02*
G37*
G36*
X118341Y15302D02*
X114341D01*
Y10774D01*
X118341D01*
Y15302D01*
D02*
G37*
G36*
X112341D02*
X108341D01*
Y10774D01*
X112341D01*
Y15302D01*
D02*
G37*
G36*
X377959Y26528D02*
X376412Y26376D01*
X374925Y25925D01*
X373554Y25192D01*
X372353Y24206D01*
X371367Y23005D01*
X370635Y21634D01*
X370183Y20147D01*
X370031Y18600D01*
X370183Y17054D01*
X370635Y15566D01*
X371367Y14196D01*
X372353Y12994D01*
X373554Y12008D01*
X374925Y11276D01*
X376412Y10825D01*
X377959Y10672D01*
X379506Y10825D01*
X380993Y11276D01*
X382364Y12008D01*
X383565Y12994D01*
X384551Y14196D01*
X385283Y15566D01*
X385735Y17054D01*
X385887Y18600D01*
X385735Y20147D01*
X385283Y21634D01*
X384551Y23005D01*
X383565Y24206D01*
X382364Y25192D01*
X380993Y25925D01*
X379506Y26376D01*
X377959Y26528D01*
D02*
G37*
G36*
X232290D02*
X230743Y26376D01*
X229256Y25925D01*
X227885Y25192D01*
X226684Y24206D01*
X225698Y23005D01*
X224965Y21634D01*
X224514Y20147D01*
X224362Y18600D01*
X224514Y17054D01*
X224965Y15566D01*
X225698Y14196D01*
X226684Y12994D01*
X227885Y12008D01*
X229256Y11276D01*
X230743Y10825D01*
X232290Y10672D01*
X233836Y10825D01*
X235324Y11276D01*
X236694Y12008D01*
X237896Y12994D01*
X238882Y14196D01*
X239614Y15566D01*
X240065Y17054D01*
X240218Y18600D01*
X240065Y20147D01*
X239614Y21634D01*
X238882Y23005D01*
X237896Y24206D01*
X236694Y25192D01*
X235324Y25925D01*
X233836Y26376D01*
X232290Y26528D01*
D02*
G37*
G36*
X402687Y157519D02*
X401906Y157364D01*
X401245Y156922D01*
X395733Y151410D01*
X395291Y150748D01*
X395136Y149968D01*
Y141694D01*
X382221Y128779D01*
X228735D01*
X227954Y128624D01*
X227293Y128182D01*
X213843Y114732D01*
X213401Y114070D01*
X213246Y113290D01*
Y56751D01*
X213401Y55971D01*
X213843Y55309D01*
X214505Y54867D01*
X215285Y54712D01*
X216065Y54867D01*
X216727Y55309D01*
X217169Y55971D01*
X217324Y56751D01*
Y112445D01*
X229579Y124700D01*
X383065D01*
X383846Y124856D01*
X384507Y125298D01*
X398617Y139407D01*
X399059Y140069D01*
X399214Y140849D01*
Y149123D01*
X403531Y153441D01*
X417272D01*
X423088Y147624D01*
Y55931D01*
X413653Y46495D01*
X398431D01*
X397651Y46340D01*
X396990Y45898D01*
X388328Y37237D01*
X387886Y36575D01*
X387731Y35795D01*
Y14796D01*
X381635Y8700D01*
X225185D01*
X217324Y16561D01*
Y22803D01*
X217169Y23583D01*
X216727Y24245D01*
X216065Y24687D01*
X215285Y24842D01*
X214505Y24687D01*
X213843Y24245D01*
X213401Y23583D01*
X213246Y22803D01*
Y15716D01*
X213401Y14936D01*
X213843Y14274D01*
X222898Y5219D01*
X223560Y4777D01*
X224340Y4622D01*
X382479D01*
X383260Y4777D01*
X383921Y5219D01*
X391212Y12510D01*
X391654Y13171D01*
X391809Y13951D01*
X391809Y13952D01*
Y34950D01*
X399276Y42417D01*
X414498D01*
X415278Y42572D01*
X415940Y43014D01*
X426569Y53644D01*
X427011Y54306D01*
X427167Y55086D01*
Y148469D01*
X427011Y149249D01*
X426569Y149911D01*
X419558Y156922D01*
X418897Y157364D01*
X418117Y157519D01*
X402687D01*
X402687Y157519D01*
D02*
G37*
G36*
X426158Y18685D02*
X414386D01*
Y6913D01*
X415396Y6993D01*
X417357Y7463D01*
X419220Y8235D01*
X420939Y9289D01*
X422473Y10598D01*
X423782Y12132D01*
X424836Y13851D01*
X425607Y15714D01*
X426078Y17675D01*
X426158Y18685D01*
D02*
G37*
G36*
X412386D02*
X400614D01*
X400693Y17675D01*
X401164Y15714D01*
X401936Y13851D01*
X402989Y12132D01*
X404299Y10598D01*
X405832Y9289D01*
X407552Y8235D01*
X409415Y7463D01*
X411376Y6993D01*
X412386Y6913D01*
Y18685D01*
D02*
G37*
G36*
X32457D02*
X20685D01*
Y6913D01*
X21695Y6993D01*
X23656Y7463D01*
X25519Y8235D01*
X27239Y9289D01*
X28772Y10598D01*
X30081Y12132D01*
X31135Y13851D01*
X31907Y15714D01*
X32377Y17675D01*
X32457Y18685D01*
D02*
G37*
G36*
X18685D02*
X6913D01*
X6993Y17675D01*
X7463Y15714D01*
X8235Y13851D01*
X9289Y12132D01*
X10598Y10598D01*
X12132Y9289D01*
X13851Y8235D01*
X15714Y7463D01*
X17675Y6993D01*
X18685Y6913D01*
Y18685D01*
D02*
G37*
G36*
X118341Y8774D02*
X114341D01*
Y4247D01*
X118341D01*
Y8774D01*
D02*
G37*
G36*
X112341D02*
X108341D01*
Y4247D01*
X112341D01*
Y8774D01*
D02*
G37*
%LPD*%
G36*
X164092Y400282D02*
X164152Y399942D01*
X164252Y399642D01*
X164392Y399382D01*
X164572Y399162D01*
X164792Y398982D01*
X165052Y398842D01*
X165352Y398742D01*
X165692Y398682D01*
X166072Y398662D01*
Y396662D01*
X165692Y396642D01*
X165352Y396582D01*
X165052Y396482D01*
X164792Y396342D01*
X164572Y396162D01*
X164392Y395942D01*
X164252Y395682D01*
X164152Y395382D01*
X164092Y395042D01*
X164072Y394662D01*
X162072Y397662D01*
X164072Y400662D01*
X164092Y400282D01*
D02*
G37*
G36*
X371909Y367148D02*
X372014Y366553D01*
X372189Y366028D01*
X372434Y365573D01*
X372749Y365188D01*
X373134Y364873D01*
X373589Y364628D01*
X374114Y364453D01*
X374709Y364348D01*
X375374Y364313D01*
Y360813D01*
X374709Y360778D01*
X374114Y360673D01*
X373589Y360498D01*
X373134Y360253D01*
X372749Y359938D01*
X372434Y359553D01*
X372189Y359098D01*
X372014Y358573D01*
X371909Y357978D01*
X371874Y357313D01*
X368374Y362563D01*
X371874Y367813D01*
X371909Y367148D01*
D02*
G37*
G36*
X164092Y339577D02*
X164152Y339237D01*
X164252Y338937D01*
X164392Y338677D01*
X164572Y338457D01*
X164792Y338277D01*
X165052Y338137D01*
X165352Y338037D01*
X165692Y337977D01*
X166072Y337957D01*
Y335957D01*
X165692Y335937D01*
X165352Y335877D01*
X165052Y335777D01*
X164792Y335637D01*
X164572Y335457D01*
X164392Y335237D01*
X164252Y334977D01*
X164152Y334677D01*
X164092Y334337D01*
X164072Y333957D01*
X162072Y336957D01*
X164072Y339957D01*
X164092Y339577D01*
D02*
G37*
G36*
X194444Y369930D02*
X194504Y369590D01*
X194604Y369290D01*
X194744Y369030D01*
X194924Y368810D01*
X195144Y368630D01*
X195404Y368490D01*
X195704Y368390D01*
X196044Y368330D01*
X196424Y368310D01*
Y366310D01*
X196044Y366290D01*
X195704Y366230D01*
X195404Y366130D01*
X195144Y365990D01*
X194924Y365810D01*
X194744Y365590D01*
X194604Y365330D01*
X194504Y365030D01*
X194444Y364690D01*
X194424Y364310D01*
X192424Y367310D01*
X194424Y370310D01*
X194444Y369930D01*
D02*
G37*
G36*
X133739D02*
X133799Y369590D01*
X133899Y369290D01*
X134039Y369030D01*
X134219Y368810D01*
X134439Y368630D01*
X134699Y368490D01*
X134999Y368390D01*
X135339Y368330D01*
X135719Y368310D01*
Y366310D01*
X135339Y366290D01*
X134999Y366230D01*
X134699Y366130D01*
X134439Y365990D01*
X134219Y365810D01*
X134039Y365590D01*
X133899Y365330D01*
X133799Y365030D01*
X133739Y364690D01*
X133719Y364310D01*
X131719Y367310D01*
X133719Y370310D01*
X133739Y369930D01*
D02*
G37*
D10*
X198924Y367310D02*
D03*
X207924D02*
D03*
X168572Y336957D02*
D03*
X177572D02*
D03*
X168572Y397662D02*
D03*
X177572D02*
D03*
X138219Y367310D02*
D03*
X147219D02*
D03*
X396883Y355476D02*
D03*
X405883D02*
D03*
X396884Y292341D02*
D03*
X405884D02*
D03*
X57217Y336045D02*
D03*
X66217D02*
D03*
X91717Y313407D02*
D03*
X100717D02*
D03*
X100717Y306321D02*
D03*
X91717D02*
D03*
X255566Y369707D02*
D03*
X264565D02*
D03*
X310684D02*
D03*
X319684D02*
D03*
X405883Y285254D02*
D03*
X396883D02*
D03*
X405884Y299428D02*
D03*
X396884D02*
D03*
X405883Y362563D02*
D03*
X396883D02*
D03*
X405883Y241084D02*
D03*
X396883D02*
D03*
X405883Y348390D02*
D03*
X396883D02*
D03*
X405883Y198549D02*
D03*
X396883D02*
D03*
X27434Y305676D02*
D03*
X18434D02*
D03*
X38925Y150477D02*
D03*
X29925D02*
D03*
X38925Y134729D02*
D03*
X29925D02*
D03*
X38925Y118981D02*
D03*
X29925D02*
D03*
X310124Y96748D02*
D03*
X319124D02*
D03*
X337282D02*
D03*
X346282D02*
D03*
X282967D02*
D03*
X291967D02*
D03*
X310124Y148795D02*
D03*
X319124D02*
D03*
X337282D02*
D03*
X346282D02*
D03*
X282967D02*
D03*
X291967D02*
D03*
D11*
X325183Y309581D02*
D03*
Y322582D02*
D03*
X24696Y181849D02*
D03*
Y194849D02*
D03*
D12*
X258795Y326581D02*
D03*
Y317581D02*
D03*
X306768Y42370D02*
D03*
Y51370D02*
D03*
X313855Y42370D02*
D03*
Y51370D02*
D03*
X401094Y99238D02*
D03*
Y108238D02*
D03*
D13*
X23599Y118981D02*
D03*
X15725D02*
D03*
X23599Y150477D02*
D03*
X15725D02*
D03*
X23599Y134729D02*
D03*
X15725D02*
D03*
D14*
X18434Y294849D02*
D03*
X36434D02*
D03*
X113341Y9774D02*
D03*
X131341D02*
D03*
X113341Y30174D02*
D03*
X131341D02*
D03*
D15*
X320744Y63630D02*
D03*
X325745D02*
D03*
X330745D02*
D03*
X335745D02*
D03*
X340744D02*
D03*
X345744D02*
D03*
X350745D02*
D03*
X320744Y42370D02*
D03*
X325745D02*
D03*
X330745D02*
D03*
X335745D02*
D03*
X340744D02*
D03*
X345744D02*
D03*
X350745D02*
D03*
X315183Y401794D02*
D03*
X320183D02*
D03*
X325184D02*
D03*
X330184D02*
D03*
X335184D02*
D03*
X340183D02*
D03*
X345183D02*
D03*
X325184Y380534D02*
D03*
X330184D02*
D03*
X335184D02*
D03*
X340183D02*
D03*
X345183D02*
D03*
X350184D02*
D03*
Y401794D02*
D03*
X320183Y380534D02*
D03*
X315183D02*
D03*
X260065Y401794D02*
D03*
X265065D02*
D03*
X270065D02*
D03*
X275065D02*
D03*
X280065D02*
D03*
X285065D02*
D03*
X290065D02*
D03*
X270065Y380534D02*
D03*
X275065D02*
D03*
X280065D02*
D03*
X285065D02*
D03*
X290065D02*
D03*
X295065D02*
D03*
Y401794D02*
D03*
X265065Y380534D02*
D03*
X260065D02*
D03*
D16*
X219156Y367310D02*
X227585Y358881D01*
X260065D01*
X207924Y367310D02*
X219156D01*
X416147Y315254D02*
X422417D01*
X401857D02*
X416147D01*
X396884Y299428D02*
Y310281D01*
X401857Y315254D01*
X396884Y292341D02*
Y299428D01*
X425717Y318554D02*
Y375090D01*
X422417Y315254D02*
X425717Y318554D01*
X422417Y378390D02*
X425717Y375090D01*
X416147Y378390D02*
X422417D01*
X401857D02*
X416147D01*
X396883Y373416D02*
X401857Y378390D01*
X396883Y362563D02*
Y373416D01*
Y355476D02*
Y362563D01*
X370124D02*
Y384668D01*
Y301657D02*
Y362563D01*
X396883D01*
X337217Y268750D02*
X370124Y301657D01*
X244717Y268750D02*
X337217D01*
X217217Y241250D02*
X244717Y268750D01*
X51217Y241250D02*
X217217D01*
X47119Y237152D02*
X51217Y241250D01*
X47119Y226345D02*
Y237152D01*
X320744Y36520D02*
Y42370D01*
X318474Y34250D02*
X320744Y36520D01*
X316183Y34250D02*
X318474D01*
X306768Y36801D02*
Y42370D01*
X304217Y34250D02*
X306768Y36801D01*
X294717Y34250D02*
X304217D01*
X313855Y36579D02*
X316183Y34250D01*
X313855Y36579D02*
Y42370D01*
X293274Y32807D02*
X294717Y34250D01*
X293274Y23207D02*
Y32807D01*
X306768Y42370D02*
X313855D01*
X31717Y344750D02*
X71367D01*
X26262Y350205D02*
X31717Y344750D01*
X26262Y350205D02*
Y367000D01*
X71367Y344750D02*
X76217Y339900D01*
Y336045D02*
Y339900D01*
X66217Y336045D02*
X76217D01*
X66217Y323250D02*
Y336045D01*
X16419Y329767D02*
Y367000D01*
X18434Y294849D02*
Y305676D01*
X26262Y320499D02*
Y329767D01*
X18434Y312672D02*
X26262Y320499D01*
X18434Y305676D02*
Y312672D01*
X361799Y384668D02*
X370124D01*
X356783Y389684D02*
X361799Y384668D01*
X345183Y389684D02*
X356783D01*
X370124Y384668D02*
Y400416D01*
Y420101D01*
X260065Y386002D02*
X263747Y389684D01*
X260065Y380534D02*
Y386002D01*
X263747Y389684D02*
X290065D01*
X315183D01*
Y380534D02*
Y389684D01*
X345183D01*
X47119Y210597D02*
Y226345D01*
Y194849D02*
Y210597D01*
X131302Y30174D02*
X141301D01*
X144365Y27110D01*
Y19974D02*
Y27110D01*
X141340Y9784D02*
X144404Y12849D01*
X131341Y9784D02*
X141340D01*
X144404Y12849D02*
Y19974D01*
D17*
X193424Y367310D02*
Y379810D01*
Y354810D02*
Y367310D01*
X198924D01*
X163072Y336957D02*
Y349457D01*
Y324457D02*
Y336957D01*
X168572D01*
X163072Y397662D02*
Y410162D01*
Y372395D02*
Y397662D01*
X168572D01*
X145864Y414364D02*
X151331Y419831D01*
X169241D01*
X201102D02*
X206569Y414364D01*
X176903Y419831D02*
X201102D01*
X173072Y416000D02*
X176903Y419831D01*
X169241D02*
X173072Y416000D01*
X206569Y376818D02*
Y414364D01*
X207924Y367310D02*
Y375463D01*
X206569Y376818D02*
X207924Y375463D01*
X145864Y376818D02*
Y414364D01*
Y376818D02*
X147219Y375463D01*
Y367310D02*
Y375463D01*
X173072Y366637D02*
X176217Y363492D01*
Y346466D02*
Y363492D01*
Y346466D02*
X177572Y345111D01*
Y336957D02*
Y345111D01*
X173072Y397662D02*
X177572D01*
X173072Y366637D02*
Y397662D01*
Y416000D01*
X132719Y367310D02*
X138219D01*
X405883Y348390D02*
X416147D01*
X137732Y216054D02*
X230898D01*
X134732Y213054D02*
X137732Y216054D01*
X129279Y213054D02*
X134732D01*
X126279Y210054D02*
X129279Y213054D01*
X120521Y210054D02*
X126279D01*
X117119Y194849D02*
Y206652D01*
X120521Y210054D01*
X138974Y213054D02*
X229655D01*
X135974Y210054D02*
X138974Y213054D01*
X130521Y210054D02*
X135974D01*
X127119Y206652D02*
X130521Y210054D01*
X127119Y194849D02*
Y206652D01*
X140217Y210054D02*
X228412D01*
X137119Y206957D02*
X140217Y210054D01*
X137119Y194849D02*
Y206957D01*
X226974Y228750D02*
X251474Y253250D01*
X109185Y228750D02*
X226974D01*
X98119Y217685D02*
X109185Y228750D01*
X86474Y206750D02*
X89474Y209750D01*
X70717Y206750D02*
X86474D01*
X67119Y203152D02*
X70717Y206750D01*
X93571Y209750D02*
X98119Y214298D01*
X89474Y209750D02*
X93571D01*
X94813Y206750D02*
X101119Y213056D01*
X90717Y206750D02*
X94813D01*
X87119Y203152D02*
X90717Y206750D01*
X97119Y204813D02*
X104119Y211813D01*
X97119Y194849D02*
Y204813D01*
X104119Y211813D02*
Y215199D01*
X101119Y213056D02*
Y216442D01*
X98119Y214298D02*
Y217685D01*
X67119Y194849D02*
Y203152D01*
X87119Y194849D02*
Y203152D01*
X110427Y225750D02*
X228217D01*
X101119Y216442D02*
X110427Y225750D01*
X104119Y215199D02*
X111670Y222750D01*
X107119Y213957D02*
X112912Y219750D01*
X111670Y222750D02*
X229460D01*
X107119Y194849D02*
Y213957D01*
X229460Y222750D02*
X253959Y247250D01*
X230702Y219750D02*
X255202Y244250D01*
X112912Y219750D02*
X230702Y219750D01*
X228412Y210054D02*
X248467Y190000D01*
X282224D01*
X229655Y213054D02*
X249709Y193000D01*
X283467D01*
X251000Y196000D02*
X284709D01*
X282224Y190000D02*
X291967Y180257D01*
X284709Y196000D02*
X297967Y182742D01*
X283467Y193000D02*
X294967Y181500D01*
Y164757D02*
Y181500D01*
X301073Y158651D02*
X316315D01*
X294967Y164757D02*
X301073Y158651D01*
X302315Y161651D02*
X317558D01*
X297967Y166000D02*
X302315Y161651D01*
X297967Y166000D02*
Y182742D01*
X320558Y158651D02*
X343473D01*
X317558Y161651D02*
X320558Y158651D01*
X316315D02*
X319124Y155842D01*
Y148795D02*
Y155842D01*
X343473Y158651D02*
X346282Y155842D01*
Y148795D02*
Y155842D01*
X230898Y216054D02*
X250702Y196250D01*
X291967Y148795D02*
Y180257D01*
X383217Y282750D02*
Y315110D01*
X374217Y273750D02*
X383217Y282750D01*
X228217Y225750D02*
X252717Y250250D01*
X251474Y253250D02*
X348217Y253250D01*
X253959Y247250D02*
X350702Y247250D01*
X255202Y244250D02*
X351945Y244250D01*
X252717Y250250D02*
X349460Y250250D01*
X402918Y198549D02*
X405883D01*
X401383Y200083D02*
X402918Y198549D01*
X401383Y200083D02*
Y261841D01*
X398474Y264750D02*
X401383Y261841D01*
X372445Y264750D02*
X398474D01*
X351945Y244250D02*
X372445Y264750D01*
X405883Y241084D02*
Y261583D01*
X399717Y267750D02*
X405883Y261583D01*
X371202Y267750D02*
X399717D01*
X350702Y247250D02*
X371202Y267750D01*
X405883Y198549D02*
X416147D01*
X405883Y241084D02*
X416147D01*
X348217Y253250D02*
X368717Y273750D01*
X374217D01*
X405883Y277039D02*
Y285254D01*
X399594Y270750D02*
X405883Y277039D01*
X369959Y270750D02*
X399594D01*
X349460Y250250D02*
X369959Y270750D01*
X405883Y337776D02*
Y348390D01*
X383217Y315110D02*
X405883Y337776D01*
Y285254D02*
X416147D01*
X350745Y31554D02*
X360282Y22016D01*
X350745Y31554D02*
Y42371D01*
X337282Y136000D02*
Y148795D01*
X310124Y136000D02*
Y148795D01*
X282967Y136000D02*
Y148795D01*
X296217Y47750D02*
Y64530D01*
X288998Y71750D02*
X296217Y64530D01*
X272217Y71750D02*
X288998D01*
X291967Y96748D02*
Y114417D01*
X319124D01*
X266884D02*
X291967D01*
X301597Y42370D02*
X306768D01*
X296217Y47750D02*
X301597Y42370D01*
X264217Y79750D02*
X272217Y71750D01*
X264217Y79750D02*
Y111750D01*
X266884Y114417D01*
X319124D02*
X341561D01*
X346282Y109696D01*
Y96748D02*
Y109696D01*
X319124Y96748D02*
Y114417D01*
X337282Y96748D02*
Y106000D01*
X310124Y96748D02*
Y106000D01*
X282967Y96748D02*
Y106000D01*
X318217Y84492D02*
X319474Y85750D01*
X318217Y82492D02*
Y84492D01*
Y82492D02*
X320460Y80250D01*
X352427D01*
X319474Y85750D02*
X335217D01*
X337217Y87750D01*
Y96683D01*
X337282Y96748D01*
X306474Y85750D02*
X317974Y74250D01*
X289032Y85750D02*
X306474D01*
X283032Y91750D02*
X289032Y85750D01*
X283032Y91750D02*
Y96683D01*
X317974Y74250D02*
X349942D01*
X319217Y77250D02*
X351185D01*
X310124Y86342D02*
X319217Y77250D01*
X310124Y86342D02*
Y96748D01*
X132719Y354810D02*
Y379810D01*
X177572Y315605D02*
X189072D01*
X165217Y303250D02*
X177572Y315605D01*
X159217Y303250D02*
X165217D01*
X163072Y315605D02*
Y324457D01*
X160717Y313250D02*
X163072Y315605D01*
X143059Y313250D02*
X160717D01*
X137119Y307311D02*
X143059Y313250D01*
X157119Y301152D02*
X159217Y303250D01*
X162943Y308250D02*
X173217Y318523D01*
X151291Y308250D02*
X162943D01*
X147119Y304078D02*
X151291Y308250D01*
X163072Y372395D02*
X173217Y362250D01*
Y318523D02*
Y362250D01*
X193424Y319957D02*
Y354810D01*
X189072Y315605D02*
X193424Y319957D01*
X132719Y317084D02*
Y354810D01*
X127119Y311484D02*
X132719Y317084D01*
X127119Y294849D02*
Y311484D01*
X157119Y294849D02*
Y301152D01*
X147119Y294849D02*
Y304078D01*
X137119Y294849D02*
Y307311D01*
X97559Y313407D02*
X100717D01*
X96217Y314750D02*
X97559Y313407D01*
X96217Y314750D02*
Y323250D01*
X91717Y306321D02*
Y313407D01*
Y306321D02*
X91717Y306321D01*
X67119Y294849D02*
Y304152D01*
X76217Y313250D01*
Y323250D01*
X86217Y313250D02*
Y323250D01*
X77119Y304152D02*
X86217Y313250D01*
X77119Y294849D02*
Y304152D01*
X89362Y306321D02*
X91717D01*
X87119Y304078D02*
X89362Y306321D01*
X87119Y294849D02*
Y304078D01*
X345183Y380534D02*
Y389684D01*
X117119Y280976D02*
Y294849D01*
Y280976D02*
X122619Y275476D01*
X100368Y285491D02*
X104119D01*
X97119Y288740D02*
X100368Y285491D01*
X97119Y288740D02*
Y294849D01*
X120134Y269476D02*
X127119D01*
X104119Y285491D02*
X120134Y269476D01*
X107119Y286734D02*
X121377Y272476D01*
X107119Y286734D02*
Y294849D01*
X121377Y272476D02*
X206626Y272476D01*
X122619Y275476D02*
X127119D01*
Y269476D02*
X207868Y269476D01*
X127119Y275476D02*
X205383Y275476D01*
X206626Y272476D02*
X222383Y288234D01*
X207868Y269476D02*
X225383Y286991D01*
X205383Y275476D02*
X219383Y289476D01*
Y321085D01*
X222383Y288234D02*
Y319842D01*
X225383Y286991D02*
Y318600D01*
X227622Y325081D02*
X252023D01*
X320183Y401794D02*
Y420042D01*
X320124Y420101D02*
X320183Y420042D01*
X340124Y413699D02*
Y420101D01*
X330124Y412754D02*
Y420101D01*
X325184Y407813D02*
X330124Y412754D01*
X325184Y401794D02*
Y407813D01*
X310124Y412991D02*
Y420101D01*
Y412991D02*
X315183Y407932D01*
Y401794D02*
Y407932D01*
X335184Y401794D02*
Y407183D01*
X330184Y401794D02*
Y407301D01*
X335184Y407183D02*
X336188Y408188D01*
X339338D01*
X342487Y411337D01*
X330184Y407301D02*
X334613Y411731D01*
X338157D01*
X340124Y413699D01*
X350124Y413463D02*
Y420101D01*
X347999Y411337D02*
X350124Y413463D01*
X342487Y411337D02*
X347999D01*
X290065Y401794D02*
Y420042D01*
X290124Y420101D01*
X285065Y401794D02*
Y407813D01*
X280124Y412754D02*
X285065Y407813D01*
X280124Y412754D02*
Y420101D01*
X258795Y410550D02*
X261007Y408337D01*
X260124Y413463D02*
Y420101D01*
Y413463D02*
X262250Y411337D01*
X253117Y410550D02*
X258795D01*
X250124Y413543D02*
X253117Y410550D01*
X250124Y413543D02*
Y420101D01*
X270124Y414409D02*
Y420101D01*
X262250Y411337D02*
X268953D01*
X271560Y408731D01*
X261007Y408337D02*
X267711D01*
X270065Y405982D01*
Y401794D02*
Y405982D01*
X271560Y408731D02*
X273046D01*
X275065Y406712D01*
Y401794D02*
Y406712D01*
X280065Y401794D02*
Y407224D01*
X270124Y414409D02*
X272409Y412125D01*
X275164D01*
X280065Y407224D01*
X240124Y400165D02*
Y420101D01*
X260065Y397647D02*
Y401794D01*
X230124Y402440D02*
Y420101D01*
Y402440D02*
X234220Y398345D01*
X237701D01*
X290065Y380534D02*
Y389684D01*
X270065Y375473D02*
Y380534D01*
Y375473D02*
X271752Y373786D01*
X277588D01*
X280065Y375552D02*
Y380534D01*
X340183Y374794D02*
X347212Y367766D01*
X340183Y374794D02*
Y380534D01*
X335184Y375552D02*
X344212Y366523D01*
X335184Y375552D02*
Y380534D01*
X295065D02*
X295093Y380506D01*
X292093Y327593D02*
Y367766D01*
X286582Y322081D02*
X292093Y327593D01*
X289093Y328836D02*
Y366523D01*
X285339Y325081D02*
X289093Y328836D01*
X286093Y330079D02*
Y365281D01*
X284096Y328081D02*
X286093Y330079D01*
X273407Y328081D02*
X284096D01*
X270472Y325081D02*
X285339D01*
X269907Y331581D02*
X273407Y328081D01*
X252724Y322081D02*
X286582D01*
X252023Y325081D02*
X253523Y326581D01*
X254280Y331581D02*
X269907D01*
X250781Y328081D02*
X254280Y331581D01*
X253523Y326581D02*
X258795D01*
X268972D01*
X270472Y325081D01*
X277588Y373786D02*
X286093Y365281D01*
X280065Y375552D02*
X289093Y366523D01*
X285065Y374794D02*
X292093Y367766D01*
X285065Y374794D02*
Y380534D01*
X325184Y372089D02*
Y380534D01*
X322802Y369707D02*
X325184Y372089D01*
X319684Y369707D02*
X322802D01*
X295065Y373035D02*
Y380534D01*
Y373035D02*
X298393Y369707D01*
X310684D01*
X264929Y380397D02*
X265065Y380534D01*
X264929Y375113D02*
Y380397D01*
X264565Y374750D02*
X264929Y375113D01*
X264565Y369707D02*
Y374750D01*
X265065Y397647D02*
Y401794D01*
X300124Y398498D02*
Y420101D01*
X265065Y397647D02*
X267127Y395585D01*
X297212D01*
X300124Y398498D01*
X237701Y398345D02*
X243769Y392277D01*
X240124Y400165D02*
X244704Y395585D01*
X258003D01*
X260065Y397647D01*
X243769Y392277D02*
X253276D01*
X255566Y389988D01*
Y369707D02*
Y389988D01*
X345183Y397647D02*
X347246Y395585D01*
X345183Y397647D02*
Y401794D01*
X360124Y399443D02*
Y420101D01*
X356267Y395585D02*
X360124Y399443D01*
X347246Y395585D02*
X356267D01*
X347212Y325900D02*
Y367766D01*
X335893Y314581D02*
X347212Y325900D01*
X344212Y327143D02*
Y366523D01*
X334650Y317581D02*
X344212Y327143D01*
X258795Y317581D02*
X334650D01*
X226379Y328081D02*
X250781D01*
X269450Y314581D02*
X335893D01*
X267777Y312908D02*
X269450Y314581D01*
X252724D02*
Y322081D01*
Y314581D02*
X254397Y312908D01*
X267777D01*
X219383Y321085D02*
X226379Y328081D01*
X222383Y319842D02*
X227622Y325081D01*
X225383Y318600D02*
X228865Y322081D01*
X252724D01*
X340282Y16986D02*
Y22017D01*
X350282Y16986D02*
Y22017D01*
X360282Y16985D02*
Y22016D01*
X330745Y31554D02*
Y42371D01*
Y31554D02*
X340282Y22017D01*
X340744Y31554D02*
Y42371D01*
Y31554D02*
X350282Y22017D01*
X358661Y55512D02*
Y69773D01*
X355661Y56754D02*
Y68530D01*
X361661Y54269D02*
Y71016D01*
X351185Y77250D02*
X358661Y69773D01*
X349942Y74250D02*
X355661Y68530D01*
X352427Y80250D02*
X361661Y71016D01*
X356211Y48819D02*
X361661Y54269D01*
X354969Y51819D02*
X358661Y55512D01*
X353726Y54819D02*
X355661Y56754D01*
X325745Y42370D02*
Y46926D01*
X327638Y48819D01*
X345744Y42370D02*
Y46926D01*
X347638Y48819D01*
X356211D01*
X335745Y42370D02*
Y46926D01*
X327638Y48819D02*
X333395D01*
X339395Y54819D01*
X353726D01*
X335745Y46926D02*
X340638Y51819D01*
X354969D01*
X23599Y118981D02*
X29925D01*
X23599Y134729D02*
X29925D01*
X23599Y150477D02*
X29925D01*
X26183Y162260D02*
X27270Y161173D01*
X32781D01*
X38925Y155029D01*
Y150477D02*
Y155029D01*
X24696Y175791D02*
X26183Y174304D01*
Y162260D02*
Y174304D01*
X24696Y175791D02*
Y181849D01*
Y194849D02*
X47119D01*
X38875Y134729D02*
Y139934D01*
X34550Y144259D02*
X38875Y139934D01*
X23133Y160929D02*
X25889Y158173D01*
X31462D01*
X34550Y155085D01*
Y144259D02*
Y155085D01*
X23133Y160929D02*
Y173062D01*
X19172Y177023D02*
X23133Y173062D01*
X19172Y177023D02*
Y188349D01*
X38887Y118981D02*
X58287D01*
D18*
X395890Y99238D02*
X401094D01*
X388217Y91565D02*
X395890Y99238D01*
X388217Y60250D02*
Y91565D01*
X382000Y54033D02*
X388217Y60250D01*
X373353Y54033D02*
X382000D01*
X373353Y74033D02*
Y92387D01*
X389204Y108238D01*
X401094D02*
X406376D01*
X412703Y114565D01*
X401094Y99238D02*
X408030D01*
X412703Y94565D01*
X389204Y108238D02*
X401094D01*
X16419Y320952D02*
Y329767D01*
X7469Y312002D02*
X16419Y320952D01*
X7469Y193559D02*
Y312002D01*
X201472Y168481D02*
X214601D01*
X81159D02*
X201472D01*
D19*
X71721Y177919D02*
X81159Y168481D01*
X12679Y188349D02*
X19172D01*
X31330D01*
X41760Y177919D01*
X71721D01*
X7469Y193559D02*
X12679Y188349D01*
D20*
X260065Y358881D02*
Y380534D01*
Y343133D02*
Y358881D01*
X315183Y343133D02*
Y358881D01*
Y380534D01*
D21*
X36434Y294849D02*
X47119D01*
X32157Y168481D02*
X45937D01*
X164365Y19974D02*
Y35007D01*
X119864Y75753D02*
X142179D01*
X144365Y19974D02*
X144404D01*
X164365D01*
X89075Y75753D02*
X119864D01*
X58287D02*
X89075D01*
X45937Y154278D02*
X58287Y141928D01*
X45937Y154278D02*
Y168481D01*
X58287Y75753D02*
Y118981D01*
Y141928D01*
X119864Y75753D02*
X120364Y76253D01*
Y83825D01*
X126270Y89730D01*
X148594D01*
X166034Y72291D01*
Y55085D02*
Y72291D01*
Y55085D02*
X184931Y36187D01*
X151467Y47906D02*
X164365Y35007D01*
X151467Y47906D02*
Y66465D01*
X142179Y75753D02*
X151467Y66465D01*
X184931Y36187D02*
X240253D01*
X253235Y23205D01*
X80378Y19974D02*
X100378D01*
X25868Y50709D02*
X37771D01*
X80056Y19652D02*
X80378Y19974D01*
X37771Y50709D02*
X47175Y41305D01*
Y29494D02*
Y41305D01*
Y29494D02*
X57017Y19652D01*
X80056D01*
D22*
X383471Y195298D02*
D03*
X226778D02*
D03*
X293274Y23207D02*
D03*
X373353Y54033D02*
D03*
X236896D02*
D03*
X273274Y23207D02*
D03*
X25868Y70709D02*
D03*
X412703Y114565D02*
D03*
D23*
X240124Y420101D02*
D03*
X230124D02*
D03*
X250124D02*
D03*
X260124D02*
D03*
X280124D02*
D03*
X300124D02*
D03*
X320124D02*
D03*
X340124D02*
D03*
X370124D02*
D03*
X360124D02*
D03*
X350124D02*
D03*
X330124D02*
D03*
X310124D02*
D03*
X290124D02*
D03*
X270124D02*
D03*
X86217Y409470D02*
D03*
X96217D02*
D03*
X76217D02*
D03*
X106217D02*
D03*
X116217D02*
D03*
X76217Y323250D02*
D03*
X86217D02*
D03*
X66217D02*
D03*
X96217D02*
D03*
X106217D02*
D03*
D24*
X380124Y420101D02*
D03*
X66217Y409470D02*
D03*
X56217Y323250D02*
D03*
D25*
X370124Y384668D02*
D03*
X385124D02*
D03*
X32196Y168481D02*
D03*
X17196D02*
D03*
X275065Y343133D02*
D03*
X260065D02*
D03*
X330184D02*
D03*
X315183D02*
D03*
X214601Y168481D02*
D03*
Y153481D02*
D03*
X47119Y226345D02*
D03*
X32119D02*
D03*
D26*
X96217Y336045D02*
D03*
X76217D02*
D03*
D27*
X320282Y16986D02*
D03*
X330282D02*
D03*
X340282D02*
D03*
X350282D02*
D03*
D28*
X360282Y16985D02*
D03*
X310282Y16986D02*
D03*
D29*
X373353Y74033D02*
D03*
X236896D02*
D03*
X25868Y50709D02*
D03*
X412703Y94565D02*
D03*
D30*
X253274Y23207D02*
D03*
D31*
X232290Y164270D02*
D03*
X377959D02*
D03*
Y18600D02*
D03*
X232290D02*
D03*
X64724Y166229D02*
D03*
X182724Y103229D02*
D03*
D32*
X416147Y378390D02*
D03*
Y368390D02*
D03*
Y358390D02*
D03*
Y315254D02*
D03*
Y305254D02*
D03*
Y295254D02*
D03*
Y251084D02*
D03*
Y208549D02*
D03*
D33*
Y348390D02*
D03*
Y285254D02*
D03*
Y241084D02*
D03*
Y198549D02*
D03*
D34*
X26262Y367000D02*
D03*
X16419D02*
D03*
X26262Y329767D02*
D03*
X16419D02*
D03*
D35*
X132719Y354810D02*
D03*
X152719Y379810D02*
D03*
X132719D02*
D03*
X152719Y354810D02*
D03*
X183072Y324457D02*
D03*
X163072Y349457D02*
D03*
X183072D02*
D03*
X163072Y324457D02*
D03*
X183072Y385162D02*
D03*
X163072Y410162D02*
D03*
X183072D02*
D03*
X163072Y385162D02*
D03*
X213424Y354810D02*
D03*
X193424Y379810D02*
D03*
X213424D02*
D03*
X193424Y354810D02*
D03*
D36*
X89114Y75753D02*
D03*
X58326D02*
D03*
X119903D02*
D03*
D37*
X89114Y60753D02*
D03*
X58326D02*
D03*
X119903D02*
D03*
D38*
X45976Y168481D02*
D03*
D39*
Y100977D02*
D03*
X201472D02*
D03*
Y168481D02*
D03*
D40*
X187119Y294849D02*
D03*
D41*
X177119D02*
D03*
X167119D02*
D03*
X157119D02*
D03*
X147119D02*
D03*
X137119D02*
D03*
X127119D02*
D03*
X117119D02*
D03*
X107119D02*
D03*
X97119D02*
D03*
X87119D02*
D03*
X77119D02*
D03*
X67119D02*
D03*
X57119D02*
D03*
X47119D02*
D03*
X187119Y194849D02*
D03*
X177119D02*
D03*
X167119D02*
D03*
X157119D02*
D03*
X147119D02*
D03*
X137119D02*
D03*
X127119D02*
D03*
X117119D02*
D03*
X107119D02*
D03*
X97119D02*
D03*
X87119D02*
D03*
X77119D02*
D03*
X67119D02*
D03*
X57119D02*
D03*
X47119D02*
D03*
D42*
X144404Y19974D02*
D03*
X164404D02*
D03*
X100378D02*
D03*
X80378D02*
D03*
D43*
X282967Y136000D02*
D03*
X337282D02*
D03*
X310124D02*
D03*
D44*
X272967D02*
D03*
Y106000D02*
D03*
X282967D02*
D03*
X327282Y136000D02*
D03*
Y106000D02*
D03*
X337282D02*
D03*
X300124Y136000D02*
D03*
Y106000D02*
D03*
X310124D02*
D03*
D45*
X260065Y358881D02*
D03*
X315183D02*
D03*
X370124Y400416D02*
D03*
X47119Y210597D02*
D03*
D46*
X270065Y358881D02*
D03*
X325184D02*
D03*
X380124Y400416D02*
D03*
X37119Y210597D02*
D03*
D47*
X19685Y19685D02*
D03*
X413386D02*
D03*
Y413386D02*
D03*
X19685D02*
D03*
M02*
